<svg xmlns="http://www.w3.org/2000/svg" version="1.1" xmlns:xlink="http://www.w3.org/1999/xlink" width="43.169434mm" height="49.951977mm"><svg width="43.169434mm" height="49.951977mm" viewBox="0 0 43.169434 49.951977" version="1.1" id="SvgjsSvg1070" inkscape:version="1.4.2 (ebf0e940d0, 2025-05-08)" sodipodi:docname="logo.svg" xmlns:inkscape="http://www.inkscape.org/namespaces/inkscape" xmlns:sodipodi="http://sodipodi.sourceforge.net/DTD/sodipodi-0.dtd" xmlns="http://www.w3.org/2000/svg" xmlns:svg="http://www.w3.org/2000/svg">
  <sodipodi:namedview id="SvgjsSodipodi:namedview1069" pagecolor="#ffffff" bordercolor="#000000" borderopacity="0.25" inkscape:showpageshadow="2" inkscape:pageopacity="0.0" inkscape:pagecheckerboard="0" inkscape:deskcolor="#d1d1d1" inkscape:document-units="mm" inkscape:zoom="3.1251122" inkscape:cx="75.357294" inkscape:cy="51.038167" inkscape:window-width="1920" inkscape:window-height="1128" inkscape:window-x="0" inkscape:window-y="0" inkscape:window-maximized="1" inkscape:current-layer="g20-1" showguides="true">
    <sodipodi:guide position="24.451486,29.746836" orientation="0,-1" id="SvgjsSodipodi:guide1068" inkscape:locked="false"></sodipodi:guide>
    <sodipodi:guide position="24.451766,20.20535" orientation="0,-1" id="SvgjsSodipodi:guide1067" inkscape:locked="false"></sodipodi:guide>
  </sodipodi:namedview>
  <defs id="SvgjsDefs1066"></defs>
  <g inkscape:label="Layer 1" inkscape:groupmode="layer" id="SvgjsG1065" transform="translate(-141.55208,-110.06665)">
    <path fill="#004482" d="m 165.00605,158.88719 17.84618,-10.30338 c 0.51408,-0.29683 0.98133,-0.80936 1.32005,-1.39624 l -21.03549,-12.14485 -21.0355,12.145 c 0.33873,0.58673 0.80611,1.0994 1.32005,1.39609 l 17.84618,10.30338 c 1.02803,0.59365 2.71051,0.59365 3.73853,0 z" id="SvgjsPath1064" style="stroke-width:0.141077"></path>
    <path fill="#659ad2" d="m 184.17243,122.89772 c -0.33887,-0.58687 -0.80626,-1.0994 -1.3202,-1.39623 l -17.84618,-10.30338 c -1.02802,-0.59365 -2.7105,-0.59365 -3.73853,0 l -17.84618,10.30338 c -1.02816,0.59351 -1.86926,2.05055 -1.86926,3.23771 v 20.6069 c 0,0.59365 0.21035,1.25474 0.54921,1.84147 l 21.0355,-12.14485 z" id="SvgjsPath1063" style="stroke-width:0.141077"></path>
    <path fill="#00599c" d="m 184.17228,147.18757 c 0.33873,-0.58673 0.54922,-1.24782 0.54922,-1.84147 v -20.6069 c 0,-0.59365 -0.21021,-1.2546 -0.54907,-1.84133 l -21.03564,12.14485 z" id="SvgjsPath1062" style="stroke-width:0.141077"></path>
    <g id="SvgjsG1061" transform="matrix(0.14107652,0,0,0.14107652,141.01481,110.75287)">
      <g id="SvgjsG1060" transform="matrix(1.0950581,0,0,1.0950581,-9.3274059,-16.367211)">
        <g id="SvgjsG1059" transform="matrix(0.66268286,0,0,0.66268286,17.203174,58.077583)">
	<path fill="#ffffff" d="m 153,274.175 c -56.243,0 -102,-45.757 -102,-102 0,-56.243 45.757,-102 102,-102 36.292,0 70.139,19.53 88.331,50.968 l -44.143,25.544 C 188.083,130.951 171.15,121.175 153,121.175 c -28.122,0 -51,22.878 -51,51 0,28.121 22.878,51 51,51 18.152,0 35.085,-9.776 44.191,-25.515 l 44.143,25.543 c -18.192,31.441 -52.04,50.972 -88.334,50.972 z" id="SvgjsPath1058"></path>

</g>
        <g id="SvgjsG1057" transform="matrix(0.65414568,0,0,0.65414568,10.823086,82.042881)">
          <g id="SvgjsG1056" transform="translate(46.250324)">
	<polygon fill="#ffffff" points="255,166.508 243.666,166.508 243.666,155.175 232.334,155.175 232.334,166.508 221,166.508 221,177.841 232.334,177.841 232.334,189.175 243.666,189.175 243.666,177.841 255,177.841 " id="SvgjsPolygon1055"></polygon>

</g>
          <g id="SvgjsG1054" transform="translate(62.191731)">
	<polygon fill="#ffffff" points="297.5,177.841 297.5,166.508 286.166,166.508 286.166,155.175 274.834,155.175 274.834,166.508 263.5,166.508 263.5,177.841 274.834,177.841 274.834,189.175 286.166,189.175 286.166,177.841 " id="SvgjsPolygon1053"></polygon>

</g>
          <g id="SvgjsG1052" style="font-size:82.4025px;line-height:0.9;font-family:'Noto Sans';-inkscape-font-specification:'Noto Sans';text-align:center;text-anchor:middle;fill:#ffcc00;stroke-width:5.61833" aria-label="4R">
            <path style="font-style:italic;font-weight:bold;font-family:'Hack Nerd Font';-inkscape-font-specification:'Hack Nerd Font Bold Italic'" d="m 281.14843,133.20388 h -23.89994 l 2.33366,-11.50738 29.57316,-35.608497 h 12.4328 l -7.16193,36.936277 h 6.59863 l -1.97154,10.1796 h -6.59864 l -2.4946,12.95586 h -11.34644 z m 2.01178,-10.1796 4.42592,-23.256176 -19.4338,23.256176 z" id="SvgjsPath1051"></path>
            <path style="font-weight:bold;font-family:'Hack Nerd Font';-inkscape-font-specification:'Hack Nerd Font Bold'" d="m 325.08557,86.088003 h 17.14036 q 11.58785,0 16.65754,4.10403 2.53484,2.052015 3.78215,5.431805 1.2473,3.339555 1.2473,7.725232 0,3.37979 -0.76448,5.79393 -0.72424,2.41413 -2.25319,4.26497 -1.44848,1.77037 -3.58097,2.89696 -2.09225,1.08636 -5.10992,1.48872 1.89107,0.44259 3.09814,1.64966 0.60354,0.60353 1.36801,1.85084 0.80471,1.2473 1.8106,3.25908 l 10.86361,21.60651 h -13.03633 l -7.24241,-15.16881 -0.84494,-1.77037 q -1.6899,-3.46026 -3.46026,-5.10992 -1.77037,-1.6899 -4.02356,-1.6899 h -3.78215 v 23.739 h -11.8695 z m 17.46225,26.354317 q 4.86851,0 7.00099,-1.93131 0.96566,-0.88519 1.52895,-2.3739 0.5633,-1.48872 0.5633,-3.90285 0,-4.42592 -2.09225,-6.276757 -2.13248,-1.891073 -7.00099,-1.891073 h -5.59275 v 16.37589 z" id="SvgjsPath1050"></path>
          </g>
        </g>
      </g>
    </g>
    <g id="SvgjsG1049" style="fill:none;stroke:#ffffff;stroke-width:1.37439;stroke-dasharray:none" transform="matrix(0.97609394,0,0,0.97609394,257.96922,607.49053)">
      <g id="SvgjsG1048" transform="rotate(-30,22.30118,-527.93143)" style="fill:none;stroke:#ffffff;stroke-width:1.37439;stroke-dasharray:none">
        <g id="SvgjsG1047" style="fill:none;stroke:#ffffff;stroke-width:1.37439;stroke-dasharray:none">
          <g id="SvgjsG1046" transform="rotate(30,-112.35408,-551.13016)" style="fill:none;stroke:#ffffff;stroke-width:1.37439;stroke-dasharray:none"></g>
          <g id="SvgjsG1045" transform="rotate(30,-109.31552,-540.75833)" style="fill:none;stroke:#ffffff;stroke-width:1.37439;stroke-dasharray:none">
            <g id="SvgjsG1044" transform="rotate(-30,-112.35409,-551.13016)" style="fill:none;stroke:#ffffff;stroke-width:1.37439;stroke-dasharray:none">
              <path sodipodi:type="star" style="fill:none;fill-opacity:1;stroke:#ffffff;stroke-width:94.4254;stroke-miterlimit:4;stroke-dasharray:none;stroke-opacity:1" id="SvgjsPath1043" sodipodi:sides="6" sodipodi:cx="-5551.2134" sodipodi:cy="-204.52565" sodipodi:r1="1701.6108" sodipodi:r2="1473.6381" sodipodi:arg1="1.0471976" sodipodi:arg2="1.5707963" inkscape:flatsided="true" inkscape:rounded="0" inkscape:randomized="0" inkscape:transform-center-x="1.5731476e-05" inkscape:transform-center-y="7.9344316e-05" transform="matrix(-0.00728526,0.01261844,-0.01259211,-0.00727006,-151.71764,-480.93967)" d="m -4700.408,1269.1126 -1701.6109,-10e-5 -850.8053,-1473.63823 850.8055,-1473.63817 1701.6108,10e-5 850.8054,1473.63823 z"></path>
            </g>
          </g>
        </g>
      </g>
    </g>
  </g>
</svg><style>@media (prefers-color-scheme: light) { :root { filter: none; } }
@media (prefers-color-scheme: dark) { :root { filter: none; } }
</style></svg>