<?xml version="1.0" encoding="UTF-8" standalone="no"?>
<!-- Created with Inkscape (http://www.inkscape.org/) -->

<svg
   width="43.169415mm"
   height="49.951977mm"
   viewBox="0 0 43.169415 49.951977"
   version="1.1"
   id="svg1"
   sodipodi:docname="logo.svg"
   inkscape:version="1.4.2 (ebf0e940d0, 2025-05-08)"
   xmlns:inkscape="http://www.inkscape.org/namespaces/inkscape"
   xmlns:sodipodi="http://sodipodi.sourceforge.net/DTD/sodipodi-0.dtd"
   xmlns="http://www.w3.org/2000/svg"
   xmlns:svg="http://www.w3.org/2000/svg">
  <sodipodi:namedview
     id="namedview1"
     pagecolor="#ffffff"
     bordercolor="#000000"
     borderopacity="0.25"
     inkscape:showpageshadow="2"
     inkscape:pageopacity="0.0"
     inkscape:pagecheckerboard="0"
     inkscape:deskcolor="#d1d1d1"
     inkscape:document-units="mm"
     inkscape:zoom="16"
     inkscape:cx="121.90625"
     inkscape:cy="74.09375"
     inkscape:window-width="1920"
     inkscape:window-height="1128"
     inkscape:window-x="0"
     inkscape:window-y="0"
     inkscape:window-maximized="1"
     inkscape:current-layer="layer1"
     showguides="true">
    <sodipodi:guide
       position="32.778981,27.374196"
       orientation="1,0"
       id="guide9"
       inkscape:locked="false" />
    <sodipodi:guide
       position="34.375433,27.374196"
       orientation="1,0"
       id="guide10"
       inkscape:locked="false" />
  </sodipodi:namedview>
  <defs
     id="defs1">
	

	

	
</defs>
  <g
     inkscape:label="Layer 1"
     inkscape:groupmode="layer"
     id="layer1"
     transform="translate(-163.84722,-32.279165)">
    <g
       id="g9"
       transform="matrix(1.0320381,0,0,1.0320381,-5.9408932,-1.8343496)">
      <path
         style="fill:#00599c;fill-opacity:1;stroke:none;stroke-width:0.841999;stroke-linejoin:bevel;stroke-dasharray:none"
         d="m 206.34657,45.154834 -20.91464,12.100318 20.91464,12.100324 z"
         id="path9" />
      <path
         style="fill:#004482;fill-opacity:1;stroke:none;stroke-width:0.841999;stroke-linejoin:bevel;stroke-dasharray:none"
         d="M 164.51729,69.35547 185.43192,81.455795 206.34657,69.355476 185.43193,57.255152 Z"
         id="path8" />
      <path
         style="fill:#659ad2;fill-opacity:1;stroke:none;stroke-width:0.841999;stroke-linejoin:bevel;stroke-dasharray:none"
         d="M 164.51729,45.154827 V 69.35547 L 206.34657,45.154834 185.43193,33.05451 Z"
         id="path7"
         sodipodi:nodetypes="ccccc" />
    </g>
    <path
       fill="#ffffff"
       d="m 185.43193,71.644891 c -7.93449,0 -14.38967,-6.455177 -14.38967,-14.389668 0,-7.93449 6.45518,-14.389667 14.38967,-14.389667 5.1199,0 9.89487,2.755198 12.46131,7.190319 l -6.22748,3.603624 c -1.28449,-2.219958 -3.67331,-3.599109 -6.23383,-3.599109 -3.96731,0 -7.19483,3.227517 -7.19483,7.194833 0,3.967175 3.22752,7.194834 7.19483,7.194834 2.5608,0 4.94962,-1.379151 6.23425,-3.599533 l 6.22749,3.603483 c -2.56644,4.435545 -7.34156,7.190884 -12.46174,7.190884 z"
       id="path4"
       style="stroke-width:0.141075" />
    <polygon
       fill="#ffffff"
       points="232.334,189.175 243.666,189.175 243.666,177.841 255,177.841 255,166.508 243.666,166.508 243.666,155.175 232.334,155.175 232.334,166.508 221,166.508 221,177.841 232.334,177.841 "
       id="polygon4"
       transform="matrix(0.14107517,0,0,0.14107517,163.84743,32.965606)" />
    <polygon
       fill="#ffffff"
       points="274.834,189.175 286.166,189.175 286.166,177.841 297.5,177.841 297.5,166.508 286.166,166.508 286.166,155.175 274.834,155.175 274.834,166.508 263.5,166.508 263.5,177.841 274.834,177.841 "
       id="polygon5"
       transform="matrix(0.14107517,0,0,0.14107517,163.84743,32.965606)" />
    <path
       style="font-weight:bold;font-size:11.7081px;line-height:0.9;font-family:'Hack Nerd Font Mono';-inkscape-font-specification:'Hack Nerd Font Mono Bold';text-align:center;text-anchor:middle;fill:#f3c84a;stroke-width:2.51198;stroke-linejoin:bevel"
       d="m 196.6262,51.437906 h -3.3465 v -1.616729 l 3.19953,-5.002813 h 1.74675 v 5.189358 h 0.92708 v 1.430184 h -0.92708 v 1.820235 h -1.59978 z m 0,-1.430184 v -3.335208 l -2.13115,3.335208 z m 3.79875,-5.189358 h 2.40813 q 1.62803,0 2.3403,0.576595 0.35614,0.288299 0.53138,0.763143 0.17525,0.469189 0.17525,1.085355 0,0.474843 -0.1074,0.814018 -0.10177,0.339173 -0.31658,0.599206 -0.20348,0.248727 -0.50309,0.407008 -0.29397,0.15263 -0.71794,0.209159 0.26571,0.06218 0.43528,0.231766 0.0849,0.08478 0.19222,0.260032 0.11304,0.175242 0.25434,0.457886 l 1.5263,3.035609 h -1.83153 l -1.01752,-2.131145 -0.11872,-0.248728 q -0.23742,-0.48615 -0.48615,-0.717915 -0.24873,-0.237422 -0.56528,-0.237422 h -0.53138 v 3.33521 h -1.66761 z m 2.45337,3.702646 q 0.68401,0 0.98359,-0.271338 0.13568,-0.124362 0.21482,-0.33352 0.0794,-0.20916 0.0794,-0.548332 0,-0.62182 -0.29395,-0.881853 -0.29958,-0.265683 -0.98359,-0.265683 h -0.78576 v 2.300726 z"
       id="text9"
       aria-label="4R" />
  </g>
</svg>
