<?xml version="1.0" encoding="UTF-8"?>
<svg xmlns="http://www.w3.org/2000/svg" xmlns:xlink="http://www.w3.org/1999/xlink" width="576" height="360" viewBox="0 0 576 360">
<defs>
<g>
<g id="glyph-0-0">
<path d="M 3.875 0 L 2.96875 0 L 2.96875 -5.828125 C 2.738281 -5.617188 2.445312 -5.410156 2.09375 -5.203125 C 1.738281 -4.992188 1.421875 -4.832031 1.140625 -4.71875 L 1.140625 -5.609375 C 1.648438 -5.847656 2.09375 -6.140625 2.46875 -6.484375 C 2.851562 -6.828125 3.125 -7.160156 3.28125 -7.484375 L 3.875 -7.484375 Z M 3.875 0 "/>
</g>
<g id="glyph-0-1">
<path d="M 0.6875 0 L 0.6875 -5.390625 L 1.5 -5.390625 L 1.5 -4.640625 C 1.675781 -4.898438 1.90625 -5.109375 2.1875 -5.265625 C 2.46875 -5.429688 2.785156 -5.515625 3.140625 -5.515625 C 3.535156 -5.515625 3.859375 -5.429688 4.109375 -5.265625 C 4.367188 -5.097656 4.554688 -4.867188 4.671875 -4.578125 C 5.097656 -5.203125 5.648438 -5.515625 6.328125 -5.515625 C 6.867188 -5.515625 7.28125 -5.363281 7.5625 -5.0625 C 7.851562 -4.769531 8 -4.316406 8 -3.703125 L 8 0 L 7.09375 0 L 7.09375 -3.40625 C 7.09375 -3.769531 7.0625 -4.03125 7 -4.1875 C 6.9375 -4.351562 6.828125 -4.484375 6.671875 -4.578125 C 6.515625 -4.671875 6.332031 -4.71875 6.125 -4.71875 C 5.75 -4.71875 5.4375 -4.59375 5.1875 -4.34375 C 4.9375 -4.09375 4.8125 -3.691406 4.8125 -3.140625 L 4.8125 0 L 3.890625 0 L 3.890625 -3.5 C 3.890625 -3.90625 3.8125 -4.207031 3.65625 -4.40625 C 3.507812 -4.613281 3.269531 -4.71875 2.9375 -4.71875 C 2.675781 -4.71875 2.4375 -4.648438 2.21875 -4.515625 C 2 -4.378906 1.835938 -4.179688 1.734375 -3.921875 C 1.640625 -3.660156 1.59375 -3.285156 1.59375 -2.796875 L 1.59375 0 Z M 0.6875 0 "/>
</g>
<g id="glyph-0-2">
<path d="M 0.3125 -1.609375 L 1.21875 -1.75 C 1.269531 -1.382812 1.410156 -1.101562 1.640625 -0.90625 C 1.878906 -0.71875 2.207031 -0.625 2.625 -0.625 C 3.039062 -0.625 3.347656 -0.707031 3.546875 -0.875 C 3.753906 -1.050781 3.859375 -1.253906 3.859375 -1.484375 C 3.859375 -1.691406 3.769531 -1.859375 3.59375 -1.984375 C 3.46875 -2.054688 3.15625 -2.15625 2.65625 -2.28125 C 1.988281 -2.457031 1.523438 -2.601562 1.265625 -2.71875 C 1.003906 -2.84375 0.804688 -3.015625 0.671875 -3.234375 C 0.535156 -3.453125 0.46875 -3.695312 0.46875 -3.96875 C 0.46875 -4.207031 0.519531 -4.425781 0.625 -4.625 C 0.738281 -4.832031 0.894531 -5.003906 1.09375 -5.140625 C 1.226562 -5.242188 1.414062 -5.332031 1.65625 -5.40625 C 1.90625 -5.476562 2.171875 -5.515625 2.453125 -5.515625 C 2.878906 -5.515625 3.253906 -5.453125 3.578125 -5.328125 C 3.898438 -5.210938 4.132812 -5.050781 4.28125 -4.84375 C 4.4375 -4.632812 4.539062 -4.351562 4.59375 -4 L 3.703125 -3.875 C 3.660156 -4.15625 3.539062 -4.375 3.34375 -4.53125 C 3.15625 -4.6875 2.882812 -4.765625 2.53125 -4.765625 C 2.101562 -4.765625 1.800781 -4.691406 1.625 -4.546875 C 1.445312 -4.410156 1.359375 -4.25 1.359375 -4.0625 C 1.359375 -3.945312 1.394531 -3.84375 1.46875 -3.75 C 1.539062 -3.65625 1.65625 -3.570312 1.8125 -3.5 C 1.90625 -3.46875 2.175781 -3.390625 2.625 -3.265625 C 3.269531 -3.097656 3.71875 -2.957031 3.96875 -2.84375 C 4.226562 -2.738281 4.429688 -2.578125 4.578125 -2.359375 C 4.722656 -2.148438 4.796875 -1.890625 4.796875 -1.578125 C 4.796875 -1.273438 4.707031 -0.988281 4.53125 -0.71875 C 4.351562 -0.445312 4.097656 -0.238281 3.765625 -0.09375 C 3.429688 0.0507812 3.050781 0.125 2.625 0.125 C 1.925781 0.125 1.390625 -0.0195312 1.015625 -0.3125 C 0.648438 -0.601562 0.414062 -1.035156 0.3125 -1.609375 Z M 0.3125 -1.609375 "/>
</g>
<g id="glyph-0-3">
<path d="M 5.234375 -0.875 L 5.234375 0 L 0.3125 0 C 0.3125 -0.21875 0.347656 -0.429688 0.421875 -0.640625 C 0.546875 -0.972656 0.742188 -1.300781 1.015625 -1.625 C 1.296875 -1.945312 1.695312 -2.320312 2.21875 -2.75 C 3.03125 -3.414062 3.578125 -3.941406 3.859375 -4.328125 C 4.140625 -4.710938 4.28125 -5.082031 4.28125 -5.4375 C 4.28125 -5.789062 4.148438 -6.09375 3.890625 -6.34375 C 3.640625 -6.59375 3.304688 -6.71875 2.890625 -6.71875 C 2.441406 -6.71875 2.085938 -6.585938 1.828125 -6.328125 C 1.566406 -6.066406 1.429688 -5.703125 1.421875 -5.234375 L 0.484375 -5.328125 C 0.546875 -6.023438 0.785156 -6.554688 1.203125 -6.921875 C 1.628906 -7.296875 2.195312 -7.484375 2.90625 -7.484375 C 3.625 -7.484375 4.191406 -7.285156 4.609375 -6.890625 C 5.023438 -6.492188 5.234375 -6 5.234375 -5.40625 C 5.234375 -5.113281 5.171875 -4.820312 5.046875 -4.53125 C 4.921875 -4.238281 4.71875 -3.929688 4.4375 -3.609375 C 4.15625 -3.296875 3.6875 -2.863281 3.03125 -2.3125 C 2.476562 -1.851562 2.125 -1.539062 1.96875 -1.375 C 1.8125 -1.207031 1.679688 -1.039062 1.578125 -0.875 Z M 5.234375 -0.875 "/>
</g>
<g id="glyph-0-4">
<path d="M 0.4375 -1.96875 L 1.359375 -2.09375 C 1.460938 -1.570312 1.640625 -1.195312 1.890625 -0.96875 C 2.140625 -0.738281 2.445312 -0.625 2.8125 -0.625 C 3.238281 -0.625 3.597656 -0.769531 3.890625 -1.0625 C 4.191406 -1.363281 4.34375 -1.738281 4.34375 -2.1875 C 4.34375 -2.601562 4.203125 -2.945312 3.921875 -3.21875 C 3.648438 -3.488281 3.304688 -3.625 2.890625 -3.625 C 2.710938 -3.625 2.492188 -3.59375 2.234375 -3.53125 L 2.34375 -4.328125 C 2.40625 -4.316406 2.453125 -4.3125 2.484375 -4.3125 C 2.878906 -4.3125 3.234375 -4.410156 3.546875 -4.609375 C 3.859375 -4.816406 4.015625 -5.132812 4.015625 -5.5625 C 4.015625 -5.894531 3.898438 -6.171875 3.671875 -6.390625 C 3.441406 -6.617188 3.148438 -6.734375 2.796875 -6.734375 C 2.429688 -6.734375 2.128906 -6.617188 1.890625 -6.390625 C 1.660156 -6.171875 1.507812 -5.835938 1.4375 -5.390625 L 0.53125 -5.546875 C 0.644531 -6.160156 0.898438 -6.632812 1.296875 -6.96875 C 1.691406 -7.3125 2.179688 -7.484375 2.765625 -7.484375 C 3.171875 -7.484375 3.546875 -7.394531 3.890625 -7.21875 C 4.234375 -7.039062 4.492188 -6.800781 4.671875 -6.5 C 4.859375 -6.195312 4.953125 -5.878906 4.953125 -5.546875 C 4.953125 -5.222656 4.863281 -4.925781 4.6875 -4.65625 C 4.519531 -4.394531 4.265625 -4.1875 3.921875 -4.03125 C 4.359375 -3.925781 4.695312 -3.710938 4.9375 -3.390625 C 5.1875 -3.078125 5.3125 -2.679688 5.3125 -2.203125 C 5.3125 -1.546875 5.070312 -0.992188 4.59375 -0.546875 C 4.125 -0.0976562 3.53125 0.125 2.8125 0.125 C 2.15625 0.125 1.609375 -0.0664062 1.171875 -0.453125 C 0.742188 -0.835938 0.5 -1.34375 0.4375 -1.96875 Z M 0.4375 -1.96875 "/>
</g>
<g id="glyph-0-5">
<path d="M 3.359375 0 L 3.359375 -1.78125 L 0.125 -1.78125 L 0.125 -2.625 L 3.53125 -7.453125 L 4.28125 -7.453125 L 4.28125 -2.625 L 5.28125 -2.625 L 5.28125 -1.78125 L 4.28125 -1.78125 L 4.28125 0 Z M 3.359375 -2.625 L 3.359375 -5.984375 L 1.03125 -2.625 Z M 3.359375 -2.625 "/>
</g>
<g id="glyph-0-6">
<path d="M 0.4375 -1.953125 L 1.390625 -2.03125 C 1.460938 -1.5625 1.628906 -1.207031 1.890625 -0.96875 C 2.148438 -0.738281 2.460938 -0.625 2.828125 -0.625 C 3.265625 -0.625 3.632812 -0.789062 3.9375 -1.125 C 4.25 -1.457031 4.40625 -1.894531 4.40625 -2.4375 C 4.40625 -2.957031 4.253906 -3.367188 3.953125 -3.671875 C 3.660156 -3.972656 3.28125 -4.125 2.8125 -4.125 C 2.519531 -4.125 2.253906 -4.054688 2.015625 -3.921875 C 1.773438 -3.796875 1.585938 -3.625 1.453125 -3.40625 L 0.59375 -3.515625 L 1.3125 -7.34375 L 5.015625 -7.34375 L 5.015625 -6.46875 L 2.046875 -6.46875 L 1.640625 -4.46875 C 2.085938 -4.78125 2.554688 -4.9375 3.046875 -4.9375 C 3.703125 -4.9375 4.253906 -4.710938 4.703125 -4.265625 C 5.148438 -3.816406 5.375 -3.238281 5.375 -2.53125 C 5.375 -1.851562 5.175781 -1.269531 4.78125 -0.78125 C 4.300781 -0.175781 3.648438 0.125 2.828125 0.125 C 2.148438 0.125 1.59375 -0.0625 1.15625 -0.4375 C 0.726562 -0.820312 0.488281 -1.328125 0.4375 -1.953125 Z M 0.4375 -1.953125 "/>
</g>
<g id="glyph-0-7">
<path d="M 5.171875 -5.625 L 4.265625 -5.546875 C 4.179688 -5.910156 4.066406 -6.175781 3.921875 -6.34375 C 3.671875 -6.601562 3.367188 -6.734375 3.015625 -6.734375 C 2.722656 -6.734375 2.460938 -6.648438 2.234375 -6.484375 C 1.953125 -6.273438 1.726562 -5.96875 1.5625 -5.5625 C 1.394531 -5.15625 1.304688 -4.582031 1.296875 -3.84375 C 1.515625 -4.175781 1.785156 -4.421875 2.109375 -4.578125 C 2.429688 -4.742188 2.765625 -4.828125 3.109375 -4.828125 C 3.722656 -4.828125 4.242188 -4.601562 4.671875 -4.15625 C 5.097656 -3.707031 5.3125 -3.128906 5.3125 -2.421875 C 5.3125 -1.953125 5.207031 -1.515625 5 -1.109375 C 4.800781 -0.710938 4.523438 -0.40625 4.171875 -0.1875 C 3.816406 0.0195312 3.421875 0.125 2.984375 0.125 C 2.210938 0.125 1.585938 -0.15625 1.109375 -0.71875 C 0.628906 -1.28125 0.390625 -2.203125 0.390625 -3.484375 C 0.390625 -4.921875 0.65625 -5.96875 1.1875 -6.625 C 1.65625 -7.195312 2.28125 -7.484375 3.0625 -7.484375 C 3.644531 -7.484375 4.125 -7.316406 4.5 -6.984375 C 4.875 -6.660156 5.097656 -6.207031 5.171875 -5.625 Z M 1.4375 -2.40625 C 1.4375 -2.09375 1.503906 -1.789062 1.640625 -1.5 C 1.773438 -1.21875 1.960938 -1 2.203125 -0.84375 C 2.441406 -0.695312 2.695312 -0.625 2.96875 -0.625 C 3.351562 -0.625 3.679688 -0.78125 3.953125 -1.09375 C 4.234375 -1.40625 4.375 -1.828125 4.375 -2.359375 C 4.375 -2.878906 4.234375 -3.285156 3.953125 -3.578125 C 3.679688 -3.878906 3.335938 -4.03125 2.921875 -4.03125 C 2.515625 -4.03125 2.164062 -3.878906 1.875 -3.578125 C 1.582031 -3.285156 1.4375 -2.894531 1.4375 -2.40625 Z M 1.4375 -2.40625 "/>
</g>
<g id="glyph-0-8">
<path d="M 0.5 -6.46875 L 0.5 -7.359375 L 5.3125 -7.359375 L 5.3125 -6.640625 C 4.84375 -6.140625 4.375 -5.46875 3.90625 -4.625 C 3.4375 -3.789062 3.078125 -2.929688 2.828125 -2.046875 C 2.640625 -1.421875 2.519531 -0.738281 2.46875 0 L 1.53125 0 C 1.539062 -0.582031 1.65625 -1.289062 1.875 -2.125 C 2.09375 -2.957031 2.40625 -3.757812 2.8125 -4.53125 C 3.226562 -5.300781 3.671875 -5.945312 4.140625 -6.46875 Z M 0.5 -6.46875 "/>
</g>
<g id="glyph-0-9">
<path d="M 0.4375 -3.671875 C 0.4375 -4.554688 0.523438 -5.265625 0.703125 -5.796875 C 0.878906 -6.335938 1.144531 -6.753906 1.5 -7.046875 C 1.863281 -7.335938 2.316406 -7.484375 2.859375 -7.484375 C 3.253906 -7.484375 3.601562 -7.398438 3.90625 -7.234375 C 4.207031 -7.078125 4.457031 -6.847656 4.65625 -6.546875 C 4.851562 -6.242188 5.007812 -5.875 5.125 -5.4375 C 5.238281 -5 5.296875 -4.410156 5.296875 -3.671875 C 5.296875 -2.796875 5.203125 -2.085938 5.015625 -1.546875 C 4.835938 -1.015625 4.566406 -0.601562 4.203125 -0.3125 C 3.847656 -0.0195312 3.398438 0.125 2.859375 0.125 C 2.140625 0.125 1.578125 -0.128906 1.171875 -0.640625 C 0.679688 -1.265625 0.4375 -2.273438 0.4375 -3.671875 Z M 1.375 -3.671875 C 1.375 -2.453125 1.515625 -1.640625 1.796875 -1.234375 C 2.085938 -0.828125 2.441406 -0.625 2.859375 -0.625 C 3.273438 -0.625 3.625 -0.828125 3.90625 -1.234375 C 4.195312 -1.640625 4.34375 -2.453125 4.34375 -3.671875 C 4.34375 -4.898438 4.195312 -5.710938 3.90625 -6.109375 C 3.625 -6.515625 3.269531 -6.71875 2.84375 -6.71875 C 2.425781 -6.71875 2.09375 -6.539062 1.84375 -6.1875 C 1.53125 -5.738281 1.375 -4.898438 1.375 -3.671875 Z M 1.375 -3.671875 "/>
</g>
<g id="glyph-0-10">
<path d="M 0.921875 0 L 0.921875 -1.046875 L 1.96875 -1.046875 L 1.96875 0 C 1.96875 0.382812 1.898438 0.691406 1.765625 0.921875 C 1.628906 1.160156 1.414062 1.34375 1.125 1.46875 L 0.859375 1.078125 C 1.054688 0.992188 1.195312 0.867188 1.28125 0.703125 C 1.375 0.546875 1.425781 0.3125 1.4375 0 Z M 0.921875 0 "/>
</g>
<g id="glyph-0-11">
<path d="M 4.203125 -1.984375 L 5.109375 -1.859375 C 5.003906 -1.242188 4.75 -0.757812 4.34375 -0.40625 C 3.945312 -0.0507812 3.453125 0.125 2.859375 0.125 C 2.117188 0.125 1.523438 -0.113281 1.078125 -0.59375 C 0.628906 -1.082031 0.40625 -1.773438 0.40625 -2.671875 C 0.40625 -3.253906 0.5 -3.765625 0.6875 -4.203125 C 0.882812 -4.640625 1.179688 -4.96875 1.578125 -5.1875 C 1.972656 -5.40625 2.398438 -5.515625 2.859375 -5.515625 C 3.453125 -5.515625 3.929688 -5.363281 4.296875 -5.0625 C 4.671875 -4.769531 4.910156 -4.351562 5.015625 -3.8125 L 4.125 -3.671875 C 4.039062 -4.035156 3.890625 -4.304688 3.671875 -4.484375 C 3.460938 -4.671875 3.207031 -4.765625 2.90625 -4.765625 C 2.4375 -4.765625 2.054688 -4.597656 1.765625 -4.265625 C 1.484375 -3.941406 1.34375 -3.421875 1.34375 -2.703125 C 1.34375 -1.972656 1.484375 -1.441406 1.765625 -1.109375 C 2.046875 -0.785156 2.40625 -0.625 2.84375 -0.625 C 3.207031 -0.625 3.507812 -0.734375 3.75 -0.953125 C 3.988281 -1.179688 4.140625 -1.523438 4.203125 -1.984375 Z M 4.203125 -1.984375 "/>
</g>
<g id="glyph-0-12">
<path d="M 0.6875 2.0625 L 0.6875 -5.390625 L 1.515625 -5.390625 L 1.515625 -4.6875 C 1.710938 -4.96875 1.9375 -5.175781 2.1875 -5.3125 C 2.4375 -5.445312 2.734375 -5.515625 3.078125 -5.515625 C 3.546875 -5.515625 3.953125 -5.394531 4.296875 -5.15625 C 4.648438 -4.925781 4.914062 -4.59375 5.09375 -4.15625 C 5.28125 -3.726562 5.375 -3.253906 5.375 -2.734375 C 5.375 -2.179688 5.273438 -1.679688 5.078125 -1.234375 C 4.878906 -0.796875 4.585938 -0.457031 4.203125 -0.21875 C 3.828125 0.0078125 3.429688 0.125 3.015625 0.125 C 2.710938 0.125 2.4375 0.0625 2.1875 -0.0625 C 1.945312 -0.195312 1.75 -0.363281 1.59375 -0.5625 L 1.59375 2.0625 Z M 1.515625 -2.671875 C 1.515625 -1.972656 1.65625 -1.457031 1.9375 -1.125 C 2.21875 -0.789062 2.554688 -0.625 2.953125 -0.625 C 3.359375 -0.625 3.707031 -0.796875 4 -1.140625 C 4.289062 -1.484375 4.4375 -2.019531 4.4375 -2.75 C 4.4375 -3.4375 4.296875 -3.945312 4.015625 -4.28125 C 3.734375 -4.625 3.394531 -4.796875 3 -4.796875 C 2.601562 -4.796875 2.253906 -4.613281 1.953125 -4.25 C 1.660156 -3.882812 1.515625 -3.359375 1.515625 -2.671875 Z M 1.515625 -2.671875 "/>
</g>
<g id="glyph-0-13">
<path d="M 0.671875 0 L 0.671875 -5.390625 L 1.5 -5.390625 L 1.5 -4.578125 C 1.707031 -4.960938 1.898438 -5.210938 2.078125 -5.328125 C 2.253906 -5.453125 2.453125 -5.515625 2.671875 -5.515625 C 2.972656 -5.515625 3.285156 -5.414062 3.609375 -5.21875 L 3.296875 -4.375 C 3.066406 -4.507812 2.84375 -4.578125 2.625 -4.578125 C 2.425781 -4.578125 2.242188 -4.515625 2.078125 -4.390625 C 1.921875 -4.273438 1.8125 -4.109375 1.75 -3.890625 C 1.644531 -3.566406 1.59375 -3.210938 1.59375 -2.828125 L 1.59375 0 Z M 0.671875 0 "/>
</g>
<g id="glyph-0-14">
<path d="M 0.8125 0 L 0.8125 -7.453125 L 4.125 -7.453125 C 4.78125 -7.453125 5.28125 -7.382812 5.625 -7.25 C 5.976562 -7.113281 6.253906 -6.875 6.453125 -6.53125 C 6.660156 -6.195312 6.765625 -5.828125 6.765625 -5.421875 C 6.765625 -4.890625 6.59375 -4.441406 6.25 -4.078125 C 5.914062 -3.710938 5.390625 -3.484375 4.671875 -3.390625 C 4.929688 -3.265625 5.128906 -3.140625 5.265625 -3.015625 C 5.554688 -2.753906 5.832031 -2.425781 6.09375 -2.03125 L 7.390625 0 L 6.140625 0 L 5.15625 -1.546875 C 4.863281 -1.992188 4.625 -2.335938 4.4375 -2.578125 C 4.257812 -2.816406 4.09375 -2.984375 3.9375 -3.078125 C 3.789062 -3.171875 3.644531 -3.234375 3.5 -3.265625 C 3.382812 -3.296875 3.203125 -3.3125 2.953125 -3.3125 L 1.796875 -3.3125 L 1.796875 0 Z M 1.796875 -4.15625 L 3.921875 -4.15625 C 4.367188 -4.15625 4.71875 -4.203125 4.96875 -4.296875 C 5.226562 -4.390625 5.421875 -4.539062 5.546875 -4.75 C 5.679688 -4.957031 5.75 -5.179688 5.75 -5.421875 C 5.75 -5.765625 5.617188 -6.050781 5.359375 -6.28125 C 5.109375 -6.507812 4.707031 -6.625 4.15625 -6.625 L 1.796875 -6.625 Z M 1.796875 -4.15625 "/>
</g>
<g id="glyph-1-0">
<path d="M 0.984375 0 L 0.984375 -9.3125 L 2.25 -9.3125 L 7.140625 -2 L 7.140625 -9.3125 L 8.328125 -9.3125 L 8.328125 0 L 7.0625 0 L 2.171875 -7.3125 L 2.171875 0 Z M 0.984375 0 "/>
</g>
<g id="glyph-1-1">
<path d="M 5.28125 0 L 5.28125 -0.984375 C 4.75 -0.222656 4.035156 0.15625 3.140625 0.15625 C 2.742188 0.15625 2.367188 0.078125 2.015625 -0.078125 C 1.671875 -0.234375 1.414062 -0.425781 1.25 -0.65625 C 1.082031 -0.882812 0.96875 -1.164062 0.90625 -1.5 C 0.851562 -1.71875 0.828125 -2.070312 0.828125 -2.5625 L 0.828125 -6.734375 L 1.96875 -6.734375 L 1.96875 -3 C 1.96875 -2.40625 1.992188 -2.003906 2.046875 -1.796875 C 2.117188 -1.492188 2.269531 -1.253906 2.5 -1.078125 C 2.726562 -0.910156 3.015625 -0.828125 3.359375 -0.828125 C 3.703125 -0.828125 4.023438 -0.914062 4.328125 -1.09375 C 4.628906 -1.269531 4.84375 -1.507812 4.96875 -1.8125 C 5.09375 -2.113281 5.15625 -2.550781 5.15625 -3.125 L 5.15625 -6.734375 L 6.296875 -6.734375 L 6.296875 0 Z M 5.28125 0 "/>
</g>
<g id="glyph-1-2">
<path d="M 0.859375 0 L 0.859375 -6.734375 L 1.875 -6.734375 L 1.875 -5.796875 C 2.09375 -6.128906 2.375 -6.394531 2.71875 -6.59375 C 3.070312 -6.789062 3.472656 -6.890625 3.921875 -6.890625 C 4.421875 -6.890625 4.828125 -6.785156 5.140625 -6.578125 C 5.460938 -6.367188 5.691406 -6.082031 5.828125 -5.71875 C 6.359375 -6.5 7.050781 -6.890625 7.90625 -6.890625 C 8.570312 -6.890625 9.082031 -6.703125 9.4375 -6.328125 C 9.800781 -5.960938 9.984375 -5.394531 9.984375 -4.625 L 9.984375 0 L 8.859375 0 L 8.859375 -4.25 C 8.859375 -4.707031 8.820312 -5.035156 8.75 -5.234375 C 8.675781 -5.429688 8.539062 -5.59375 8.34375 -5.71875 C 8.144531 -5.84375 7.914062 -5.90625 7.65625 -5.90625 C 7.175781 -5.90625 6.78125 -5.742188 6.46875 -5.421875 C 6.15625 -5.109375 6 -4.609375 6 -3.921875 L 6 0 L 4.859375 0 L 4.859375 -4.375 C 4.859375 -4.882812 4.765625 -5.265625 4.578125 -5.515625 C 4.390625 -5.773438 4.085938 -5.90625 3.671875 -5.90625 C 3.347656 -5.90625 3.050781 -5.816406 2.78125 -5.640625 C 2.507812 -5.472656 2.3125 -5.226562 2.1875 -4.90625 C 2.0625 -4.582031 2 -4.113281 2 -3.5 L 2 0 Z M 0.859375 0 "/>
</g>
<g id="glyph-1-3">
<path d="M 1.90625 0 L 0.84375 0 L 0.84375 -9.3125 L 2 -9.3125 L 2 -5.984375 C 2.476562 -6.585938 3.09375 -6.890625 3.84375 -6.890625 C 4.257812 -6.890625 4.648438 -6.804688 5.015625 -6.640625 C 5.390625 -6.472656 5.695312 -6.238281 5.9375 -5.9375 C 6.175781 -5.632812 6.363281 -5.269531 6.5 -4.84375 C 6.632812 -4.414062 6.703125 -3.957031 6.703125 -3.46875 C 6.703125 -2.3125 6.414062 -1.414062 5.84375 -0.78125 C 5.269531 -0.15625 4.582031 0.15625 3.78125 0.15625 C 2.988281 0.15625 2.363281 -0.175781 1.90625 -0.84375 Z M 1.890625 -3.421875 C 1.890625 -2.609375 2.003906 -2.023438 2.234375 -1.671875 C 2.585938 -1.078125 3.070312 -0.78125 3.6875 -0.78125 C 4.1875 -0.78125 4.617188 -1 4.984375 -1.4375 C 5.347656 -1.875 5.53125 -2.519531 5.53125 -3.375 C 5.53125 -4.257812 5.351562 -4.910156 5 -5.328125 C 4.65625 -5.742188 4.234375 -5.953125 3.734375 -5.953125 C 3.234375 -5.953125 2.800781 -5.734375 2.4375 -5.296875 C 2.070312 -4.867188 1.890625 -4.242188 1.890625 -3.421875 Z M 1.890625 -3.421875 "/>
</g>
<g id="glyph-1-4">
<path d="M 5.46875 -2.171875 L 6.65625 -2.03125 C 6.46875 -1.332031 6.117188 -0.789062 5.609375 -0.40625 C 5.109375 -0.03125 4.46875 0.15625 3.6875 0.15625 C 2.695312 0.15625 1.910156 -0.144531 1.328125 -0.75 C 0.753906 -1.363281 0.46875 -2.21875 0.46875 -3.3125 C 0.46875 -4.445312 0.757812 -5.328125 1.34375 -5.953125 C 1.9375 -6.578125 2.695312 -6.890625 3.625 -6.890625 C 4.53125 -6.890625 5.265625 -6.582031 5.828125 -5.96875 C 6.398438 -5.351562 6.6875 -4.492188 6.6875 -3.390625 C 6.6875 -3.316406 6.6875 -3.210938 6.6875 -3.078125 L 1.65625 -3.078125 C 1.695312 -2.335938 1.90625 -1.769531 2.28125 -1.375 C 2.65625 -0.976562 3.125 -0.78125 3.6875 -0.78125 C 4.113281 -0.78125 4.472656 -0.890625 4.765625 -1.109375 C 5.066406 -1.335938 5.300781 -1.691406 5.46875 -2.171875 Z M 1.71875 -4.015625 L 5.484375 -4.015625 C 5.429688 -4.585938 5.285156 -5.015625 5.046875 -5.296875 C 4.679688 -5.734375 4.210938 -5.953125 3.640625 -5.953125 C 3.109375 -5.953125 2.664062 -5.773438 2.3125 -5.421875 C 1.957031 -5.078125 1.757812 -4.609375 1.71875 -4.015625 Z M 1.71875 -4.015625 "/>
</g>
<g id="glyph-1-5">
<path d="M 0.84375 0 L 0.84375 -6.734375 L 1.875 -6.734375 L 1.875 -5.71875 C 2.132812 -6.195312 2.375 -6.507812 2.59375 -6.65625 C 2.820312 -6.8125 3.066406 -6.890625 3.328125 -6.890625 C 3.710938 -6.890625 4.101562 -6.769531 4.5 -6.53125 L 4.109375 -5.46875 C 3.828125 -5.632812 3.550781 -5.71875 3.28125 -5.71875 C 3.03125 -5.71875 2.800781 -5.640625 2.59375 -5.484375 C 2.394531 -5.335938 2.253906 -5.128906 2.171875 -4.859375 C 2.046875 -4.453125 1.984375 -4.007812 1.984375 -3.53125 L 1.984375 0 Z M 0.84375 0 "/>
</g>
<g id="glyph-1-6">
</g>
<g id="glyph-1-7">
<path d="M 0.4375 -3.375 C 0.4375 -4.625 0.78125 -5.546875 1.46875 -6.140625 C 2.050781 -6.640625 2.757812 -6.890625 3.59375 -6.890625 C 4.519531 -6.890625 5.273438 -6.585938 5.859375 -5.984375 C 6.453125 -5.378906 6.75 -4.539062 6.75 -3.46875 C 6.75 -2.601562 6.617188 -1.921875 6.359375 -1.421875 C 6.097656 -0.921875 5.71875 -0.53125 5.21875 -0.25 C 4.71875 0.0195312 4.175781 0.15625 3.59375 0.15625 C 2.644531 0.15625 1.878906 -0.144531 1.296875 -0.75 C 0.722656 -1.351562 0.4375 -2.226562 0.4375 -3.375 Z M 1.609375 -3.375 C 1.609375 -2.507812 1.796875 -1.859375 2.171875 -1.421875 C 2.546875 -0.992188 3.019531 -0.78125 3.59375 -0.78125 C 4.15625 -0.78125 4.625 -0.992188 5 -1.421875 C 5.382812 -1.859375 5.578125 -2.519531 5.578125 -3.40625 C 5.578125 -4.238281 5.382812 -4.867188 5 -5.296875 C 4.625 -5.734375 4.15625 -5.953125 3.59375 -5.953125 C 3.019531 -5.953125 2.546875 -5.738281 2.171875 -5.3125 C 1.796875 -4.882812 1.609375 -4.238281 1.609375 -3.375 Z M 1.609375 -3.375 "/>
</g>
<g id="glyph-1-8">
<path d="M 1.125 0 L 1.125 -5.859375 L 0.125 -5.859375 L 0.125 -6.734375 L 1.125 -6.734375 L 1.125 -7.453125 C 1.125 -7.910156 1.164062 -8.25 1.25 -8.46875 C 1.363281 -8.757812 1.554688 -9 1.828125 -9.1875 C 2.109375 -9.375 2.5 -9.46875 3 -9.46875 C 3.320312 -9.46875 3.675781 -9.425781 4.0625 -9.34375 L 3.890625 -8.359375 C 3.648438 -8.398438 3.425781 -8.421875 3.21875 -8.421875 C 2.875 -8.421875 2.628906 -8.34375 2.484375 -8.1875 C 2.335938 -8.039062 2.265625 -7.765625 2.265625 -7.359375 L 2.265625 -6.734375 L 3.578125 -6.734375 L 3.578125 -5.859375 L 2.265625 -5.859375 L 2.265625 0 Z M 1.125 0 "/>
</g>
<g id="glyph-1-9">
<path d="M 0.859375 2.578125 L 0.859375 -6.734375 L 1.890625 -6.734375 L 1.890625 -5.859375 C 2.140625 -6.203125 2.414062 -6.457031 2.71875 -6.625 C 3.03125 -6.800781 3.410156 -6.890625 3.859375 -6.890625 C 4.429688 -6.890625 4.9375 -6.738281 5.375 -6.4375 C 5.8125 -6.144531 6.140625 -5.726562 6.359375 -5.1875 C 6.585938 -4.65625 6.703125 -4.066406 6.703125 -3.421875 C 6.703125 -2.734375 6.578125 -2.113281 6.328125 -1.5625 C 6.085938 -1.007812 5.726562 -0.582031 5.25 -0.28125 C 4.78125 0.0078125 4.285156 0.15625 3.765625 0.15625 C 3.390625 0.15625 3.050781 0.078125 2.75 -0.078125 C 2.445312 -0.242188 2.195312 -0.453125 2 -0.703125 L 2 2.578125 Z M 1.890625 -3.328125 C 1.890625 -2.460938 2.066406 -1.820312 2.421875 -1.40625 C 2.773438 -0.988281 3.195312 -0.78125 3.6875 -0.78125 C 4.195312 -0.78125 4.632812 -0.992188 5 -1.421875 C 5.363281 -1.859375 5.546875 -2.523438 5.546875 -3.421875 C 5.546875 -4.285156 5.367188 -4.929688 5.015625 -5.359375 C 4.660156 -5.785156 4.238281 -6 3.75 -6 C 3.257812 -6 2.828125 -5.769531 2.453125 -5.3125 C 2.078125 -4.863281 1.890625 -4.203125 1.890625 -3.328125 Z M 1.890625 -3.328125 "/>
</g>
<g id="glyph-1-10">
<path d="M 3.359375 -1.015625 L 3.515625 -0.015625 C 3.191406 0.0546875 2.90625 0.09375 2.65625 0.09375 C 2.238281 0.09375 1.914062 0.0234375 1.6875 -0.109375 C 1.457031 -0.242188 1.296875 -0.414062 1.203125 -0.625 C 1.109375 -0.84375 1.0625 -1.289062 1.0625 -1.96875 L 1.0625 -5.859375 L 0.234375 -5.859375 L 0.234375 -6.734375 L 1.0625 -6.734375 L 1.0625 -8.40625 L 2.203125 -9.09375 L 2.203125 -6.734375 L 3.359375 -6.734375 L 3.359375 -5.859375 L 2.203125 -5.859375 L 2.203125 -1.90625 C 2.203125 -1.582031 2.222656 -1.375 2.265625 -1.28125 C 2.304688 -1.1875 2.367188 -1.113281 2.453125 -1.0625 C 2.546875 -1.007812 2.675781 -0.984375 2.84375 -0.984375 C 2.976562 -0.984375 3.148438 -0.992188 3.359375 -1.015625 Z M 3.359375 -1.015625 "/>
</g>
<g id="glyph-1-11">
<path d="M 5.25 -2.46875 L 6.375 -2.328125 C 6.257812 -1.546875 5.945312 -0.9375 5.4375 -0.5 C 4.925781 -0.0625 4.304688 0.15625 3.578125 0.15625 C 2.648438 0.15625 1.90625 -0.144531 1.34375 -0.75 C 0.789062 -1.351562 0.515625 -2.21875 0.515625 -3.34375 C 0.515625 -4.070312 0.632812 -4.707031 0.875 -5.25 C 1.113281 -5.800781 1.476562 -6.210938 1.96875 -6.484375 C 2.457031 -6.753906 2.992188 -6.890625 3.578125 -6.890625 C 4.304688 -6.890625 4.90625 -6.703125 5.375 -6.328125 C 5.84375 -5.960938 6.140625 -5.441406 6.265625 -4.765625 L 5.15625 -4.59375 C 5.050781 -5.039062 4.863281 -5.378906 4.59375 -5.609375 C 4.332031 -5.835938 4.007812 -5.953125 3.625 -5.953125 C 3.050781 -5.953125 2.582031 -5.742188 2.21875 -5.328125 C 1.863281 -4.921875 1.6875 -4.269531 1.6875 -3.375 C 1.6875 -2.46875 1.859375 -1.804688 2.203125 -1.390625 C 2.546875 -0.984375 3 -0.78125 3.5625 -0.78125 C 4.007812 -0.78125 4.382812 -0.914062 4.6875 -1.1875 C 4.988281 -1.46875 5.175781 -1.894531 5.25 -2.46875 Z M 5.25 -2.46875 "/>
</g>
<g id="glyph-1-12">
<path d="M 5.234375 0 L 5.234375 -0.84375 C 4.804688 -0.175781 4.175781 0.15625 3.34375 0.15625 C 2.8125 0.15625 2.316406 0.0078125 1.859375 -0.28125 C 1.410156 -0.582031 1.0625 -1 0.8125 -1.53125 C 0.5625 -2.0625 0.4375 -2.671875 0.4375 -3.359375 C 0.4375 -4.035156 0.550781 -4.644531 0.78125 -5.1875 C 1.007812 -5.738281 1.347656 -6.160156 1.796875 -6.453125 C 2.242188 -6.742188 2.742188 -6.890625 3.296875 -6.890625 C 3.703125 -6.890625 4.0625 -6.800781 4.375 -6.625 C 4.695312 -6.457031 4.957031 -6.238281 5.15625 -5.96875 L 5.15625 -9.3125 L 6.296875 -9.3125 L 6.296875 0 Z M 1.625 -3.359375 C 1.625 -2.492188 1.800781 -1.847656 2.15625 -1.421875 C 2.519531 -0.992188 2.953125 -0.78125 3.453125 -0.78125 C 3.953125 -0.78125 4.375 -0.984375 4.71875 -1.390625 C 5.070312 -1.804688 5.25 -2.429688 5.25 -3.265625 C 5.25 -4.191406 5.070312 -4.867188 4.71875 -5.296875 C 4.363281 -5.734375 3.925781 -5.953125 3.40625 -5.953125 C 2.894531 -5.953125 2.46875 -5.742188 2.125 -5.328125 C 1.789062 -4.910156 1.625 -4.253906 1.625 -3.359375 Z M 1.625 -3.359375 "/>
</g>
<g id="glyph-1-13">
<path d="M 0.84375 -7.984375 L 0.84375 -9.3125 L 2 -9.3125 L 2 -7.984375 Z M -0.59375 2.609375 L -0.375 1.640625 C -0.144531 1.703125 0.03125 1.734375 0.15625 1.734375 C 0.394531 1.734375 0.566406 1.65625 0.671875 1.5 C 0.785156 1.34375 0.84375 0.957031 0.84375 0.34375 L 0.84375 -6.734375 L 2 -6.734375 L 2 0.375 C 2 1.195312 1.890625 1.769531 1.671875 2.09375 C 1.390625 2.519531 0.929688 2.734375 0.296875 2.734375 C -0.015625 2.734375 -0.3125 2.691406 -0.59375 2.609375 Z M -0.59375 2.609375 "/>
</g>
<g id="glyph-1-14">
<path d="M 0.40625 -2.015625 L 1.53125 -2.1875 C 1.59375 -1.738281 1.769531 -1.390625 2.0625 -1.140625 C 2.351562 -0.898438 2.757812 -0.78125 3.28125 -0.78125 C 3.800781 -0.78125 4.1875 -0.882812 4.4375 -1.09375 C 4.695312 -1.3125 4.828125 -1.566406 4.828125 -1.859375 C 4.828125 -2.117188 4.710938 -2.320312 4.484375 -2.46875 C 4.328125 -2.570312 3.9375 -2.703125 3.3125 -2.859375 C 2.476562 -3.066406 1.898438 -3.25 1.578125 -3.40625 C 1.253906 -3.5625 1.007812 -3.773438 0.84375 -4.046875 C 0.675781 -4.316406 0.59375 -4.617188 0.59375 -4.953125 C 0.59375 -5.253906 0.660156 -5.53125 0.796875 -5.78125 C 0.929688 -6.039062 1.117188 -6.253906 1.359375 -6.421875 C 1.535156 -6.554688 1.773438 -6.664062 2.078125 -6.75 C 2.390625 -6.84375 2.722656 -6.890625 3.078125 -6.890625 C 3.597656 -6.890625 4.054688 -6.8125 4.453125 -6.65625 C 4.859375 -6.507812 5.15625 -6.304688 5.34375 -6.046875 C 5.539062 -5.785156 5.675781 -5.4375 5.75 -5 L 4.625 -4.84375 C 4.570312 -5.195312 4.425781 -5.46875 4.1875 -5.65625 C 3.945312 -5.851562 3.601562 -5.953125 3.15625 -5.953125 C 2.632812 -5.953125 2.257812 -5.863281 2.03125 -5.6875 C 1.800781 -5.519531 1.6875 -5.316406 1.6875 -5.078125 C 1.6875 -4.929688 1.734375 -4.800781 1.828125 -4.6875 C 1.921875 -4.5625 2.066406 -4.457031 2.265625 -4.375 C 2.378906 -4.332031 2.71875 -4.238281 3.28125 -4.09375 C 4.09375 -3.875 4.65625 -3.695312 4.96875 -3.5625 C 5.289062 -3.425781 5.539062 -3.222656 5.71875 -2.953125 C 5.90625 -2.691406 6 -2.367188 6 -1.984375 C 6 -1.597656 5.882812 -1.238281 5.65625 -0.90625 C 5.4375 -0.570312 5.117188 -0.3125 4.703125 -0.125 C 4.285156 0.0625 3.8125 0.15625 3.28125 0.15625 C 2.40625 0.15625 1.738281 -0.0234375 1.28125 -0.390625 C 0.820312 -0.753906 0.53125 -1.296875 0.40625 -2.015625 Z M 0.40625 -2.015625 "/>
</g>
<g id="glyph-1-15">
<path d="M 1 0 L 1 -9.3125 L 4.515625 -9.3125 C 5.128906 -9.3125 5.597656 -9.28125 5.921875 -9.21875 C 6.378906 -9.144531 6.765625 -9 7.078125 -8.78125 C 7.390625 -8.570312 7.640625 -8.273438 7.828125 -7.890625 C 8.015625 -7.503906 8.109375 -7.078125 8.109375 -6.609375 C 8.109375 -5.816406 7.851562 -5.144531 7.34375 -4.59375 C 6.84375 -4.050781 5.9375 -3.78125 4.625 -3.78125 L 2.234375 -3.78125 L 2.234375 0 Z M 2.234375 -4.875 L 4.640625 -4.875 C 5.429688 -4.875 5.992188 -5.019531 6.328125 -5.3125 C 6.671875 -5.613281 6.84375 -6.035156 6.84375 -6.578125 C 6.84375 -6.960938 6.742188 -7.289062 6.546875 -7.5625 C 6.347656 -7.84375 6.085938 -8.03125 5.765625 -8.125 C 5.554688 -8.175781 5.171875 -8.203125 4.609375 -8.203125 L 2.234375 -8.203125 Z M 2.234375 -4.875 "/>
</g>
<g id="glyph-1-16">
<path d="M 5.25 -0.828125 C 4.832031 -0.472656 4.425781 -0.21875 4.03125 -0.0625 C 3.644531 0.0820312 3.226562 0.15625 2.78125 0.15625 C 2.03125 0.15625 1.457031 -0.0234375 1.0625 -0.390625 C 0.664062 -0.753906 0.46875 -1.21875 0.46875 -1.78125 C 0.46875 -2.101562 0.539062 -2.398438 0.6875 -2.671875 C 0.84375 -2.953125 1.039062 -3.175781 1.28125 -3.34375 C 1.53125 -3.507812 1.804688 -3.632812 2.109375 -3.71875 C 2.328125 -3.769531 2.664062 -3.828125 3.125 -3.890625 C 4.039062 -3.992188 4.71875 -4.125 5.15625 -4.28125 C 5.164062 -4.4375 5.171875 -4.535156 5.171875 -4.578125 C 5.171875 -5.046875 5.0625 -5.375 4.84375 -5.5625 C 4.550781 -5.820312 4.117188 -5.953125 3.546875 -5.953125 C 3.003906 -5.953125 2.601562 -5.859375 2.34375 -5.671875 C 2.09375 -5.484375 1.90625 -5.148438 1.78125 -4.671875 L 0.671875 -4.8125 C 0.765625 -5.289062 0.925781 -5.675781 1.15625 -5.96875 C 1.394531 -6.269531 1.734375 -6.5 2.171875 -6.65625 C 2.617188 -6.8125 3.128906 -6.890625 3.703125 -6.890625 C 4.285156 -6.890625 4.753906 -6.820312 5.109375 -6.6875 C 5.472656 -6.550781 5.738281 -6.378906 5.90625 -6.171875 C 6.070312 -5.972656 6.191406 -5.71875 6.265625 -5.40625 C 6.296875 -5.207031 6.3125 -4.851562 6.3125 -4.34375 L 6.3125 -2.828125 C 6.3125 -1.765625 6.335938 -1.09375 6.390625 -0.8125 C 6.441406 -0.53125 6.535156 -0.257812 6.671875 0 L 5.484375 0 C 5.367188 -0.238281 5.289062 -0.515625 5.25 -0.828125 Z M 5.15625 -3.390625 C 4.738281 -3.210938 4.117188 -3.066406 3.296875 -2.953125 C 2.828125 -2.878906 2.492188 -2.800781 2.296875 -2.71875 C 2.097656 -2.632812 1.945312 -2.507812 1.84375 -2.34375 C 1.738281 -2.1875 1.6875 -2.007812 1.6875 -1.8125 C 1.6875 -1.507812 1.800781 -1.253906 2.03125 -1.046875 C 2.257812 -0.847656 2.597656 -0.75 3.046875 -0.75 C 3.484375 -0.75 3.875 -0.84375 4.21875 -1.03125 C 4.5625 -1.226562 4.816406 -1.492188 4.984375 -1.828125 C 5.097656 -2.078125 5.15625 -2.457031 5.15625 -2.96875 Z M 5.15625 -3.390625 "/>
</g>
<g id="glyph-1-17">
<path d="M 0.859375 0 L 0.859375 -9.3125 L 2 -9.3125 L 2 -4 L 4.703125 -6.734375 L 6.1875 -6.734375 L 3.609375 -4.234375 L 6.453125 0 L 5.046875 0 L 2.8125 -3.453125 L 2 -2.671875 L 2 0 Z M 0.859375 0 "/>
</g>
<g id="glyph-1-18">
<path d="M 0.640625 0.5625 L 1.765625 0.71875 C 1.804688 1.0625 1.929688 1.3125 2.140625 1.46875 C 2.429688 1.6875 2.820312 1.796875 3.3125 1.796875 C 3.832031 1.796875 4.238281 1.6875 4.53125 1.46875 C 4.820312 1.257812 5.015625 0.960938 5.109375 0.578125 C 5.171875 0.347656 5.203125 -0.132812 5.203125 -0.875 C 4.703125 -0.289062 4.078125 0 3.328125 0 C 2.398438 0 1.679688 -0.332031 1.171875 -1 C 0.671875 -1.664062 0.421875 -2.46875 0.421875 -3.40625 C 0.421875 -4.050781 0.535156 -4.644531 0.765625 -5.1875 C 1.003906 -5.726562 1.34375 -6.144531 1.78125 -6.4375 C 2.21875 -6.738281 2.738281 -6.890625 3.34375 -6.890625 C 4.132812 -6.890625 4.789062 -6.566406 5.3125 -5.921875 L 5.3125 -6.734375 L 6.359375 -6.734375 L 6.359375 -0.921875 C 6.359375 0.128906 6.25 0.875 6.03125 1.3125 C 5.820312 1.75 5.484375 2.09375 5.015625 2.34375 C 4.554688 2.601562 3.988281 2.734375 3.3125 2.734375 C 2.507812 2.734375 1.859375 2.550781 1.359375 2.1875 C 0.867188 1.832031 0.628906 1.289062 0.640625 0.5625 Z M 1.59375 -3.484375 C 1.59375 -2.609375 1.765625 -1.96875 2.109375 -1.5625 C 2.460938 -1.15625 2.90625 -0.953125 3.4375 -0.953125 C 3.96875 -0.953125 4.410156 -1.148438 4.765625 -1.546875 C 5.117188 -1.953125 5.296875 -2.585938 5.296875 -3.453125 C 5.296875 -4.273438 5.113281 -4.894531 4.75 -5.3125 C 4.382812 -5.738281 3.941406 -5.953125 3.421875 -5.953125 C 2.910156 -5.953125 2.476562 -5.742188 2.125 -5.328125 C 1.769531 -4.910156 1.59375 -4.296875 1.59375 -3.484375 Z M 1.59375 -3.484375 "/>
</g>
<g id="glyph-2-0">
<path d="M 0 -1.015625 L -9.3125 -1.015625 L -9.3125 -5.140625 C -9.3125 -5.972656 -9.222656 -6.601562 -9.046875 -7.03125 C -8.878906 -7.46875 -8.582031 -7.816406 -8.15625 -8.078125 C -7.738281 -8.335938 -7.273438 -8.46875 -6.765625 -8.46875 C -6.109375 -8.46875 -5.550781 -8.25 -5.09375 -7.8125 C -4.644531 -7.382812 -4.359375 -6.726562 -4.234375 -5.84375 C -4.078125 -6.164062 -3.921875 -6.410156 -3.765625 -6.578125 C -3.441406 -6.941406 -3.03125 -7.285156 -2.53125 -7.609375 L 0 -9.21875 L 0 -7.671875 L -1.9375 -6.4375 C -2.5 -6.082031 -2.925781 -5.785156 -3.21875 -5.546875 C -3.507812 -5.316406 -3.710938 -5.109375 -3.828125 -4.921875 C -3.953125 -4.742188 -4.039062 -4.5625 -4.09375 -4.375 C -4.113281 -4.226562 -4.125 -4 -4.125 -3.6875 L -4.125 -2.25 L 0 -2.25 Z M -5.203125 -2.25 L -5.203125 -4.90625 C -5.203125 -5.46875 -5.257812 -5.90625 -5.375 -6.21875 C -5.488281 -6.539062 -5.671875 -6.78125 -5.921875 -6.9375 C -6.179688 -7.101562 -6.460938 -7.1875 -6.765625 -7.1875 C -7.203125 -7.1875 -7.5625 -7.023438 -7.84375 -6.703125 C -8.132812 -6.390625 -8.28125 -5.890625 -8.28125 -5.203125 L -8.28125 -2.25 Z M -5.203125 -2.25 "/>
</g>
<g id="glyph-2-1">
<path d="M -2.171875 -5.46875 L -2.03125 -6.65625 C -1.332031 -6.46875 -0.789062 -6.117188 -0.40625 -5.609375 C -0.03125 -5.109375 0.15625 -4.46875 0.15625 -3.6875 C 0.15625 -2.695312 -0.144531 -1.910156 -0.75 -1.328125 C -1.363281 -0.753906 -2.21875 -0.46875 -3.3125 -0.46875 C -4.445312 -0.46875 -5.328125 -0.757812 -5.953125 -1.34375 C -6.578125 -1.9375 -6.890625 -2.695312 -6.890625 -3.625 C -6.890625 -4.53125 -6.582031 -5.265625 -5.96875 -5.828125 C -5.351562 -6.398438 -4.492188 -6.6875 -3.390625 -6.6875 C -3.316406 -6.6875 -3.210938 -6.6875 -3.078125 -6.6875 L -3.078125 -1.65625 C -2.335938 -1.695312 -1.769531 -1.90625 -1.375 -2.28125 C -0.976562 -2.65625 -0.78125 -3.125 -0.78125 -3.6875 C -0.78125 -4.113281 -0.890625 -4.472656 -1.109375 -4.765625 C -1.335938 -5.066406 -1.691406 -5.300781 -2.171875 -5.46875 Z M -4.015625 -1.71875 L -4.015625 -5.484375 C -4.585938 -5.429688 -5.015625 -5.285156 -5.296875 -5.046875 C -5.734375 -4.679688 -5.953125 -4.210938 -5.953125 -3.640625 C -5.953125 -3.109375 -5.773438 -2.664062 -5.421875 -2.3125 C -5.078125 -1.957031 -4.609375 -1.757812 -4.015625 -1.71875 Z M -4.015625 -1.71875 "/>
</g>
<g id="glyph-2-2">
<path d="M 0 -0.828125 L -9.3125 -0.828125 L -9.3125 -1.96875 L 0 -1.96875 Z M 0 -0.828125 "/>
</g>
<g id="glyph-2-3">
<path d="M -0.828125 -5.25 C -0.472656 -4.832031 -0.21875 -4.425781 -0.0625 -4.03125 C 0.0820312 -3.644531 0.15625 -3.226562 0.15625 -2.78125 C 0.15625 -2.03125 -0.0234375 -1.457031 -0.390625 -1.0625 C -0.753906 -0.664062 -1.21875 -0.46875 -1.78125 -0.46875 C -2.101562 -0.46875 -2.398438 -0.539062 -2.671875 -0.6875 C -2.953125 -0.84375 -3.175781 -1.039062 -3.34375 -1.28125 C -3.507812 -1.53125 -3.632812 -1.804688 -3.71875 -2.109375 C -3.769531 -2.328125 -3.828125 -2.664062 -3.890625 -3.125 C -3.992188 -4.039062 -4.125 -4.71875 -4.28125 -5.15625 C -4.4375 -5.164062 -4.535156 -5.171875 -4.578125 -5.171875 C -5.046875 -5.171875 -5.375 -5.0625 -5.5625 -4.84375 C -5.820312 -4.550781 -5.953125 -4.117188 -5.953125 -3.546875 C -5.953125 -3.003906 -5.859375 -2.601562 -5.671875 -2.34375 C -5.484375 -2.09375 -5.148438 -1.90625 -4.671875 -1.78125 L -4.8125 -0.671875 C -5.289062 -0.765625 -5.675781 -0.925781 -5.96875 -1.15625 C -6.269531 -1.394531 -6.5 -1.734375 -6.65625 -2.171875 C -6.8125 -2.617188 -6.890625 -3.128906 -6.890625 -3.703125 C -6.890625 -4.285156 -6.820312 -4.753906 -6.6875 -5.109375 C -6.550781 -5.472656 -6.378906 -5.738281 -6.171875 -5.90625 C -5.972656 -6.070312 -5.71875 -6.191406 -5.40625 -6.265625 C -5.207031 -6.296875 -4.851562 -6.3125 -4.34375 -6.3125 L -2.828125 -6.3125 C -1.765625 -6.3125 -1.09375 -6.335938 -0.8125 -6.390625 C -0.53125 -6.441406 -0.257812 -6.535156 0 -6.671875 L 0 -5.484375 C -0.238281 -5.367188 -0.515625 -5.289062 -0.828125 -5.25 Z M -3.390625 -5.15625 C -3.210938 -4.738281 -3.066406 -4.117188 -2.953125 -3.296875 C -2.878906 -2.828125 -2.800781 -2.492188 -2.71875 -2.296875 C -2.632812 -2.097656 -2.507812 -1.945312 -2.34375 -1.84375 C -2.1875 -1.738281 -2.007812 -1.6875 -1.8125 -1.6875 C -1.507812 -1.6875 -1.253906 -1.800781 -1.046875 -2.03125 C -0.847656 -2.257812 -0.75 -2.597656 -0.75 -3.046875 C -0.75 -3.484375 -0.84375 -3.875 -1.03125 -4.21875 C -1.226562 -4.5625 -1.492188 -4.816406 -1.828125 -4.984375 C -2.078125 -5.097656 -2.457031 -5.15625 -2.96875 -5.15625 Z M -3.390625 -5.15625 "/>
</g>
<g id="glyph-2-4">
<path d="M -2.015625 -0.40625 L -2.1875 -1.53125 C -1.738281 -1.59375 -1.390625 -1.769531 -1.140625 -2.0625 C -0.898438 -2.351562 -0.78125 -2.757812 -0.78125 -3.28125 C -0.78125 -3.800781 -0.882812 -4.1875 -1.09375 -4.4375 C -1.3125 -4.695312 -1.566406 -4.828125 -1.859375 -4.828125 C -2.117188 -4.828125 -2.320312 -4.710938 -2.46875 -4.484375 C -2.570312 -4.328125 -2.703125 -3.9375 -2.859375 -3.3125 C -3.066406 -2.476562 -3.25 -1.898438 -3.40625 -1.578125 C -3.5625 -1.253906 -3.773438 -1.007812 -4.046875 -0.84375 C -4.316406 -0.675781 -4.617188 -0.59375 -4.953125 -0.59375 C -5.253906 -0.59375 -5.53125 -0.660156 -5.78125 -0.796875 C -6.039062 -0.929688 -6.253906 -1.117188 -6.421875 -1.359375 C -6.554688 -1.535156 -6.664062 -1.773438 -6.75 -2.078125 C -6.84375 -2.390625 -6.890625 -2.722656 -6.890625 -3.078125 C -6.890625 -3.597656 -6.8125 -4.054688 -6.65625 -4.453125 C -6.507812 -4.859375 -6.304688 -5.15625 -6.046875 -5.34375 C -5.785156 -5.539062 -5.4375 -5.675781 -5 -5.75 L -4.84375 -4.625 C -5.195312 -4.570312 -5.46875 -4.425781 -5.65625 -4.1875 C -5.851562 -3.945312 -5.953125 -3.601562 -5.953125 -3.15625 C -5.953125 -2.632812 -5.863281 -2.257812 -5.6875 -2.03125 C -5.519531 -1.800781 -5.316406 -1.6875 -5.078125 -1.6875 C -4.929688 -1.6875 -4.800781 -1.734375 -4.6875 -1.828125 C -4.5625 -1.921875 -4.457031 -2.066406 -4.375 -2.265625 C -4.332031 -2.378906 -4.238281 -2.71875 -4.09375 -3.28125 C -3.875 -4.09375 -3.695312 -4.65625 -3.5625 -4.96875 C -3.425781 -5.289062 -3.222656 -5.539062 -2.953125 -5.71875 C -2.691406 -5.90625 -2.367188 -6 -1.984375 -6 C -1.597656 -6 -1.238281 -5.882812 -0.90625 -5.65625 C -0.570312 -5.4375 -0.3125 -5.117188 -0.125 -4.703125 C 0.0625 -4.285156 0.15625 -3.8125 0.15625 -3.28125 C 0.15625 -2.40625 -0.0234375 -1.738281 -0.390625 -1.28125 C -0.753906 -0.820312 -1.296875 -0.53125 -2.015625 -0.40625 Z M -2.015625 -0.40625 "/>
</g>
<g id="glyph-2-5">
</g>
<g id="glyph-2-6">
<path d="M -1.015625 -3.359375 L -0.015625 -3.515625 C 0.0546875 -3.191406 0.09375 -2.90625 0.09375 -2.65625 C 0.09375 -2.238281 0.0234375 -1.914062 -0.109375 -1.6875 C -0.242188 -1.457031 -0.414062 -1.296875 -0.625 -1.203125 C -0.84375 -1.109375 -1.289062 -1.0625 -1.96875 -1.0625 L -5.859375 -1.0625 L -5.859375 -0.234375 L -6.734375 -0.234375 L -6.734375 -1.0625 L -8.40625 -1.0625 L -9.09375 -2.203125 L -6.734375 -2.203125 L -6.734375 -3.359375 L -5.859375 -3.359375 L -5.859375 -2.203125 L -1.90625 -2.203125 C -1.582031 -2.203125 -1.375 -2.222656 -1.28125 -2.265625 C -1.1875 -2.304688 -1.113281 -2.367188 -1.0625 -2.453125 C -1.007812 -2.546875 -0.984375 -2.675781 -0.984375 -2.84375 C -0.984375 -2.976562 -0.992188 -3.148438 -1.015625 -3.359375 Z M -1.015625 -3.359375 "/>
</g>
<g id="glyph-2-7">
<path d="M -7.984375 -0.859375 L -9.3125 -0.859375 L -9.3125 -2 L -7.984375 -2 Z M 0 -0.859375 L -6.734375 -0.859375 L -6.734375 -2 L 0 -2 Z M 0 -0.859375 "/>
</g>
<g id="glyph-2-8">
<path d="M 0 -0.859375 L -6.734375 -0.859375 L -6.734375 -1.875 L -5.796875 -1.875 C -6.128906 -2.09375 -6.394531 -2.375 -6.59375 -2.71875 C -6.789062 -3.070312 -6.890625 -3.472656 -6.890625 -3.921875 C -6.890625 -4.421875 -6.785156 -4.828125 -6.578125 -5.140625 C -6.367188 -5.460938 -6.082031 -5.691406 -5.71875 -5.828125 C -6.5 -6.359375 -6.890625 -7.050781 -6.890625 -7.90625 C -6.890625 -8.570312 -6.703125 -9.082031 -6.328125 -9.4375 C -5.960938 -9.800781 -5.394531 -9.984375 -4.625 -9.984375 L 0 -9.984375 L 0 -8.859375 L -4.25 -8.859375 C -4.707031 -8.859375 -5.035156 -8.820312 -5.234375 -8.75 C -5.429688 -8.675781 -5.59375 -8.539062 -5.71875 -8.34375 C -5.84375 -8.144531 -5.90625 -7.914062 -5.90625 -7.65625 C -5.90625 -7.175781 -5.742188 -6.78125 -5.421875 -6.46875 C -5.109375 -6.15625 -4.609375 -6 -3.921875 -6 L 0 -6 L 0 -4.859375 L -4.375 -4.859375 C -4.882812 -4.859375 -5.265625 -4.765625 -5.515625 -4.578125 C -5.773438 -4.390625 -5.90625 -4.085938 -5.90625 -3.671875 C -5.90625 -3.347656 -5.816406 -3.050781 -5.640625 -2.78125 C -5.472656 -2.507812 -5.226562 -2.3125 -4.90625 -2.1875 C -4.582031 -2.0625 -4.113281 -2 -3.5 -2 L 0 -2 Z M 0 -0.859375 "/>
</g>
<g id="glyph-3-0">
<path d="M 1.1875 0 L 1.1875 -11.453125 L 3.4375 -11.453125 L 8.125 -3.8125 L 8.125 -11.453125 L 10.28125 -11.453125 L 10.28125 0 L 7.953125 0 L 3.34375 -7.46875 L 3.34375 0 Z M 1.1875 0 "/>
</g>
<g id="glyph-3-1">
<path d="M 6.609375 0 L 6.609375 -1.25 C 6.304688 -0.800781 5.910156 -0.445312 5.421875 -0.1875 C 4.929688 0.0625 4.410156 0.1875 3.859375 0.1875 C 3.304688 0.1875 2.804688 0.0664062 2.359375 -0.171875 C 1.921875 -0.421875 1.601562 -0.765625 1.40625 -1.203125 C 1.207031 -1.648438 1.109375 -2.265625 1.109375 -3.046875 L 1.109375 -8.296875 L 3.296875 -8.296875 L 3.296875 -4.484375 C 3.296875 -3.316406 3.335938 -2.601562 3.421875 -2.34375 C 3.503906 -2.082031 3.648438 -1.875 3.859375 -1.71875 C 4.078125 -1.5625 4.347656 -1.484375 4.671875 -1.484375 C 5.046875 -1.484375 5.378906 -1.585938 5.671875 -1.796875 C 5.972656 -2.003906 6.175781 -2.257812 6.28125 -2.5625 C 6.394531 -2.863281 6.453125 -3.609375 6.453125 -4.796875 L 6.453125 -8.296875 L 8.65625 -8.296875 L 8.65625 0 Z M 6.609375 0 "/>
</g>
<g id="glyph-3-2">
<path d="M 0.984375 -8.296875 L 3.015625 -8.296875 L 3.015625 -7.171875 C 3.734375 -8.046875 4.59375 -8.484375 5.59375 -8.484375 C 6.125 -8.484375 6.582031 -8.375 6.96875 -8.15625 C 7.363281 -7.9375 7.6875 -7.609375 7.9375 -7.171875 C 8.300781 -7.609375 8.691406 -7.9375 9.109375 -8.15625 C 9.535156 -8.375 9.988281 -8.484375 10.46875 -8.484375 C 11.082031 -8.484375 11.597656 -8.359375 12.015625 -8.109375 C 12.441406 -7.867188 12.757812 -7.507812 12.96875 -7.03125 C 13.113281 -6.675781 13.1875 -6.101562 13.1875 -5.3125 L 13.1875 0 L 11 0 L 11 -4.75 C 11 -5.570312 10.921875 -6.101562 10.765625 -6.34375 C 10.566406 -6.65625 10.253906 -6.8125 9.828125 -6.8125 C 9.523438 -6.8125 9.238281 -6.71875 8.96875 -6.53125 C 8.695312 -6.34375 8.5 -6.066406 8.375 -5.703125 C 8.257812 -5.335938 8.203125 -4.765625 8.203125 -3.984375 L 8.203125 0 L 6 0 L 6 -4.546875 C 6 -5.359375 5.957031 -5.878906 5.875 -6.109375 C 5.800781 -6.347656 5.679688 -6.523438 5.515625 -6.640625 C 5.359375 -6.753906 5.140625 -6.8125 4.859375 -6.8125 C 4.515625 -6.8125 4.207031 -6.71875 3.9375 -6.53125 C 3.664062 -6.351562 3.472656 -6.09375 3.359375 -5.75 C 3.242188 -5.40625 3.1875 -4.832031 3.1875 -4.03125 L 3.1875 0 L 0.984375 0 Z M 0.984375 -8.296875 "/>
</g>
<g id="glyph-3-3">
<path d="M 1.0625 0 L 1.0625 -11.453125 L 3.25 -11.453125 L 3.25 -7.328125 C 3.925781 -8.097656 4.726562 -8.484375 5.65625 -8.484375 C 6.664062 -8.484375 7.5 -8.117188 8.15625 -7.390625 C 8.820312 -6.660156 9.15625 -5.609375 9.15625 -4.234375 C 9.15625 -2.816406 8.816406 -1.722656 8.140625 -0.953125 C 7.472656 -0.191406 6.65625 0.1875 5.6875 0.1875 C 5.21875 0.1875 4.75 0.0664062 4.28125 -0.171875 C 3.820312 -0.410156 3.425781 -0.757812 3.09375 -1.21875 L 3.09375 0 Z M 3.234375 -4.328125 C 3.234375 -3.472656 3.367188 -2.835938 3.640625 -2.421875 C 4.023438 -1.835938 4.53125 -1.546875 5.15625 -1.546875 C 5.644531 -1.546875 6.054688 -1.753906 6.390625 -2.171875 C 6.734375 -2.585938 6.90625 -3.238281 6.90625 -4.125 C 6.90625 -5.070312 6.734375 -5.753906 6.390625 -6.171875 C 6.046875 -6.597656 5.609375 -6.8125 5.078125 -6.8125 C 4.546875 -6.8125 4.101562 -6.601562 3.75 -6.1875 C 3.40625 -5.78125 3.234375 -5.160156 3.234375 -4.328125 Z M 3.234375 -4.328125 "/>
</g>
<g id="glyph-3-4">
<path d="M 5.953125 -2.640625 L 8.140625 -2.28125 C 7.859375 -1.476562 7.414062 -0.863281 6.8125 -0.4375 C 6.207031 -0.0195312 5.445312 0.1875 4.53125 0.1875 C 3.09375 0.1875 2.023438 -0.285156 1.328125 -1.234375 C 0.785156 -1.984375 0.515625 -2.9375 0.515625 -4.09375 C 0.515625 -5.46875 0.875 -6.539062 1.59375 -7.3125 C 2.3125 -8.09375 3.21875 -8.484375 4.3125 -8.484375 C 5.550781 -8.484375 6.523438 -8.078125 7.234375 -7.265625 C 7.953125 -6.453125 8.296875 -5.203125 8.265625 -3.515625 L 2.765625 -3.515625 C 2.773438 -2.867188 2.945312 -2.363281 3.28125 -2 C 3.625 -1.632812 4.050781 -1.453125 4.5625 -1.453125 C 4.90625 -1.453125 5.191406 -1.546875 5.421875 -1.734375 C 5.660156 -1.921875 5.835938 -2.222656 5.953125 -2.640625 Z M 6.078125 -4.859375 C 6.066406 -5.492188 5.90625 -5.976562 5.59375 -6.3125 C 5.28125 -6.644531 4.898438 -6.8125 4.453125 -6.8125 C 3.972656 -6.8125 3.578125 -6.632812 3.265625 -6.28125 C 2.953125 -5.9375 2.796875 -5.460938 2.796875 -4.859375 Z M 6.078125 -4.859375 "/>
</g>
<g id="glyph-3-5">
<path d="M 3.25 0 L 1.0625 0 L 1.0625 -8.296875 L 3.09375 -8.296875 L 3.09375 -7.125 C 3.445312 -7.675781 3.757812 -8.039062 4.03125 -8.21875 C 4.3125 -8.394531 4.628906 -8.484375 4.984375 -8.484375 C 5.484375 -8.484375 5.96875 -8.347656 6.4375 -8.078125 L 5.75 -6.15625 C 5.382812 -6.394531 5.039062 -6.515625 4.71875 -6.515625 C 4.414062 -6.515625 4.15625 -6.429688 3.9375 -6.265625 C 3.726562 -6.097656 3.5625 -5.789062 3.4375 -5.34375 C 3.3125 -4.90625 3.25 -3.976562 3.25 -2.5625 Z M 3.25 0 "/>
</g>
<g id="glyph-3-6">
</g>
<g id="glyph-3-7">
<path d="M 0.640625 -4.265625 C 0.640625 -4.992188 0.816406 -5.695312 1.171875 -6.375 C 1.535156 -7.0625 2.046875 -7.582031 2.703125 -7.9375 C 3.367188 -8.300781 4.109375 -8.484375 4.921875 -8.484375 C 6.171875 -8.484375 7.195312 -8.078125 8 -7.265625 C 8.800781 -6.453125 9.203125 -5.421875 9.203125 -4.171875 C 9.203125 -2.921875 8.796875 -1.878906 7.984375 -1.046875 C 7.179688 -0.222656 6.164062 0.1875 4.9375 0.1875 C 4.175781 0.1875 3.445312 0.015625 2.75 -0.328125 C 2.0625 -0.671875 1.535156 -1.175781 1.171875 -1.84375 C 0.816406 -2.507812 0.640625 -3.316406 0.640625 -4.265625 Z M 2.890625 -4.15625 C 2.890625 -3.332031 3.082031 -2.703125 3.46875 -2.265625 C 3.863281 -1.828125 4.347656 -1.609375 4.921875 -1.609375 C 5.492188 -1.609375 5.972656 -1.828125 6.359375 -2.265625 C 6.753906 -2.703125 6.953125 -3.335938 6.953125 -4.171875 C 6.953125 -4.984375 6.753906 -5.609375 6.359375 -6.046875 C 5.972656 -6.484375 5.492188 -6.703125 4.921875 -6.703125 C 4.347656 -6.703125 3.863281 -6.484375 3.46875 -6.046875 C 3.082031 -5.609375 2.890625 -4.976562 2.890625 -4.15625 Z M 2.890625 -4.15625 "/>
</g>
<g id="glyph-3-8">
<path d="M 0.1875 -8.296875 L 1.40625 -8.296875 L 1.40625 -8.921875 C 1.40625 -9.617188 1.476562 -10.140625 1.625 -10.484375 C 1.78125 -10.828125 2.054688 -11.109375 2.453125 -11.328125 C 2.847656 -11.546875 3.351562 -11.65625 3.96875 -11.65625 C 4.59375 -11.65625 5.203125 -11.5625 5.796875 -11.375 L 5.5 -9.84375 C 5.15625 -9.925781 4.820312 -9.96875 4.5 -9.96875 C 4.175781 -9.96875 3.945312 -9.890625 3.8125 -9.734375 C 3.675781 -9.585938 3.609375 -9.304688 3.609375 -8.890625 L 3.609375 -8.296875 L 5.25 -8.296875 L 5.25 -6.578125 L 3.609375 -6.578125 L 3.609375 0 L 1.40625 0 L 1.40625 -6.578125 L 0.1875 -6.578125 Z M 0.1875 -8.296875 "/>
</g>
<g id="glyph-3-9">
<path d="M 1.09375 -8.296875 L 3.140625 -8.296875 L 3.140625 -7.078125 C 3.398438 -7.492188 3.753906 -7.832031 4.203125 -8.09375 C 4.660156 -8.351562 5.164062 -8.484375 5.71875 -8.484375 C 6.6875 -8.484375 7.503906 -8.101562 8.171875 -7.34375 C 8.847656 -6.59375 9.1875 -5.546875 9.1875 -4.203125 C 9.1875 -2.816406 8.847656 -1.738281 8.171875 -0.96875 C 7.492188 -0.195312 6.671875 0.1875 5.703125 0.1875 C 5.242188 0.1875 4.828125 0.0976562 4.453125 -0.078125 C 4.085938 -0.265625 3.695312 -0.582031 3.28125 -1.03125 L 3.28125 3.15625 L 1.09375 3.15625 Z M 3.265625 -4.296875 C 3.265625 -3.359375 3.445312 -2.664062 3.8125 -2.21875 C 4.1875 -1.78125 4.640625 -1.5625 5.171875 -1.5625 C 5.679688 -1.5625 6.101562 -1.765625 6.4375 -2.171875 C 6.78125 -2.578125 6.953125 -3.25 6.953125 -4.1875 C 6.953125 -5.050781 6.773438 -5.691406 6.421875 -6.109375 C 6.078125 -6.535156 5.644531 -6.75 5.125 -6.75 C 4.59375 -6.75 4.148438 -6.539062 3.796875 -6.125 C 3.441406 -5.71875 3.265625 -5.109375 3.265625 -4.296875 Z M 3.265625 -4.296875 "/>
</g>
<g id="glyph-3-10">
<path d="M 4.953125 -8.296875 L 4.953125 -6.546875 L 3.453125 -6.546875 L 3.453125 -3.203125 C 3.453125 -2.523438 3.46875 -2.128906 3.5 -2.015625 C 3.53125 -1.910156 3.59375 -1.820312 3.6875 -1.75 C 3.789062 -1.675781 3.914062 -1.640625 4.0625 -1.640625 C 4.269531 -1.640625 4.566406 -1.707031 4.953125 -1.84375 L 5.140625 -0.140625 C 4.628906 0.078125 4.050781 0.1875 3.40625 0.1875 C 3.007812 0.1875 2.648438 0.117188 2.328125 -0.015625 C 2.015625 -0.148438 1.78125 -0.320312 1.625 -0.53125 C 1.476562 -0.738281 1.378906 -1.023438 1.328125 -1.390625 C 1.273438 -1.640625 1.25 -2.15625 1.25 -2.9375 L 1.25 -6.546875 L 0.25 -6.546875 L 0.25 -8.296875 L 1.25 -8.296875 L 1.25 -9.953125 L 3.453125 -11.234375 L 3.453125 -8.296875 Z M 4.953125 -8.296875 "/>
</g>
<g id="glyph-3-11">
<path d="M 8.390625 -5.84375 L 6.21875 -5.453125 C 6.144531 -5.890625 5.976562 -6.21875 5.71875 -6.4375 C 5.46875 -6.65625 5.132812 -6.765625 4.71875 -6.765625 C 4.175781 -6.765625 3.738281 -6.570312 3.40625 -6.1875 C 3.082031 -5.8125 2.921875 -5.179688 2.921875 -4.296875 C 2.921875 -3.316406 3.085938 -2.625 3.421875 -2.21875 C 3.753906 -1.8125 4.195312 -1.609375 4.75 -1.609375 C 5.164062 -1.609375 5.503906 -1.722656 5.765625 -1.953125 C 6.035156 -2.191406 6.226562 -2.601562 6.34375 -3.1875 L 8.5 -2.8125 C 8.269531 -1.820312 7.835938 -1.070312 7.203125 -0.5625 C 6.566406 -0.0625 5.71875 0.1875 4.65625 0.1875 C 3.4375 0.1875 2.46875 -0.191406 1.75 -0.953125 C 1.03125 -1.722656 0.671875 -2.785156 0.671875 -4.140625 C 0.671875 -5.515625 1.03125 -6.582031 1.75 -7.34375 C 2.476562 -8.101562 3.457031 -8.484375 4.6875 -8.484375 C 5.695312 -8.484375 6.5 -8.265625 7.09375 -7.828125 C 7.695312 -7.398438 8.128906 -6.738281 8.390625 -5.84375 Z M 8.390625 -5.84375 "/>
</g>
<g id="glyph-3-12">
<path d="M 8.765625 0 L 6.71875 0 L 6.71875 -1.21875 C 6.382812 -0.75 5.984375 -0.394531 5.515625 -0.15625 C 5.054688 0.0703125 4.59375 0.1875 4.125 0.1875 C 3.175781 0.1875 2.359375 -0.195312 1.671875 -0.96875 C 0.992188 -1.738281 0.65625 -2.8125 0.65625 -4.1875 C 0.65625 -5.59375 0.984375 -6.660156 1.640625 -7.390625 C 2.304688 -8.117188 3.144531 -8.484375 4.15625 -8.484375 C 5.082031 -8.484375 5.882812 -8.097656 6.5625 -7.328125 L 6.5625 -11.453125 L 8.765625 -11.453125 Z M 2.90625 -4.328125 C 2.90625 -3.441406 3.023438 -2.800781 3.265625 -2.40625 C 3.617188 -1.832031 4.113281 -1.546875 4.75 -1.546875 C 5.257812 -1.546875 5.691406 -1.757812 6.046875 -2.1875 C 6.398438 -2.625 6.578125 -3.269531 6.578125 -4.125 C 6.578125 -5.070312 6.40625 -5.753906 6.0625 -6.171875 C 5.71875 -6.597656 5.273438 -6.8125 4.734375 -6.8125 C 4.210938 -6.8125 3.773438 -6.601562 3.421875 -6.1875 C 3.078125 -5.769531 2.90625 -5.148438 2.90625 -4.328125 Z M 2.90625 -4.328125 "/>
</g>
<g id="glyph-3-13">
<path d="M 1.109375 -9.421875 L 1.109375 -11.453125 L 3.296875 -11.453125 L 3.296875 -9.421875 Z M 3.296875 -8.296875 L 3.296875 -0.265625 C 3.296875 0.796875 3.226562 1.546875 3.09375 1.984375 C 2.957031 2.421875 2.691406 2.757812 2.296875 3 C 1.898438 3.25 1.398438 3.375 0.796875 3.375 C 0.578125 3.375 0.335938 3.351562 0.078125 3.3125 C -0.171875 3.269531 -0.441406 3.210938 -0.734375 3.140625 L -0.359375 1.265625 C -0.253906 1.285156 -0.15625 1.300781 -0.0625 1.3125 C 0.03125 1.320312 0.117188 1.328125 0.203125 1.328125 C 0.421875 1.328125 0.601562 1.28125 0.75 1.1875 C 0.894531 1.09375 0.988281 0.976562 1.03125 0.84375 C 1.082031 0.707031 1.109375 0.296875 1.109375 -0.390625 L 1.109375 -8.296875 Z M 3.296875 -8.296875 "/>
</g>
<g id="glyph-3-14">
<path d="M 0.375 -2.375 L 2.578125 -2.703125 C 2.671875 -2.273438 2.859375 -1.953125 3.140625 -1.734375 C 3.429688 -1.515625 3.835938 -1.40625 4.359375 -1.40625 C 4.921875 -1.40625 5.347656 -1.507812 5.640625 -1.71875 C 5.828125 -1.863281 5.921875 -2.054688 5.921875 -2.296875 C 5.921875 -2.460938 5.867188 -2.601562 5.765625 -2.71875 C 5.660156 -2.820312 5.414062 -2.914062 5.03125 -3 C 3.257812 -3.394531 2.140625 -3.753906 1.671875 -4.078125 C 1.015625 -4.523438 0.6875 -5.144531 0.6875 -5.9375 C 0.6875 -6.65625 0.96875 -7.257812 1.53125 -7.75 C 2.101562 -8.238281 2.984375 -8.484375 4.171875 -8.484375 C 5.304688 -8.484375 6.148438 -8.296875 6.703125 -7.921875 C 7.253906 -7.554688 7.632812 -7.015625 7.84375 -6.296875 L 5.78125 -5.90625 C 5.6875 -6.226562 5.515625 -6.472656 5.265625 -6.640625 C 5.023438 -6.816406 4.675781 -6.90625 4.21875 -6.90625 C 3.632812 -6.90625 3.21875 -6.828125 2.96875 -6.671875 C 2.800781 -6.554688 2.71875 -6.40625 2.71875 -6.21875 C 2.71875 -6.0625 2.789062 -5.929688 2.9375 -5.828125 C 3.132812 -5.679688 3.816406 -5.472656 4.984375 -5.203125 C 6.160156 -4.941406 6.976562 -4.617188 7.4375 -4.234375 C 7.894531 -3.835938 8.125 -3.289062 8.125 -2.59375 C 8.125 -1.832031 7.804688 -1.175781 7.171875 -0.625 C 6.535156 -0.0820312 5.597656 0.1875 4.359375 0.1875 C 3.222656 0.1875 2.328125 -0.0390625 1.671875 -0.5 C 1.015625 -0.957031 0.582031 -1.582031 0.375 -2.375 Z M 0.375 -2.375 "/>
</g>
<g id="glyph-3-15">
<path d="M 3.4375 0 L 0.09375 -8.296875 L 2.390625 -8.296875 L 3.953125 -4.0625 L 4.40625 -2.65625 C 4.53125 -3.007812 4.609375 -3.242188 4.640625 -3.359375 C 4.710938 -3.597656 4.789062 -3.832031 4.875 -4.0625 L 6.453125 -8.296875 L 8.703125 -8.296875 L 5.40625 0 Z M 3.4375 0 "/>
</g>
<g id="glyph-3-16">
<path d="M 1.140625 0 L 1.140625 -11.453125 L 4.59375 -11.453125 L 6.671875 -3.640625 L 8.734375 -11.453125 L 12.203125 -11.453125 L 12.203125 0 L 10.046875 0 L 10.046875 -9.015625 L 7.78125 0 L 5.546875 0 L 3.28125 -9.015625 L 3.28125 0 Z M 1.140625 0 "/>
</g>
<g id="glyph-3-17">
<path d="M 1.15625 -9.421875 L 1.15625 -11.453125 L 3.34375 -11.453125 L 3.34375 -9.421875 Z M 1.15625 0 L 1.15625 -8.296875 L 3.34375 -8.296875 L 3.34375 0 Z M 1.15625 0 "/>
</g>
<g id="glyph-3-18">
<path d="M 2.796875 -5.765625 L 0.796875 -6.125 C 1.023438 -6.925781 1.410156 -7.519531 1.953125 -7.90625 C 2.503906 -8.289062 3.316406 -8.484375 4.390625 -8.484375 C 5.367188 -8.484375 6.097656 -8.367188 6.578125 -8.140625 C 7.054688 -7.910156 7.394531 -7.613281 7.59375 -7.25 C 7.789062 -6.894531 7.890625 -6.242188 7.890625 -5.296875 L 7.859375 -2.734375 C 7.859375 -2.003906 7.894531 -1.460938 7.96875 -1.109375 C 8.039062 -0.765625 8.171875 -0.394531 8.359375 0 L 6.1875 0 C 6.132812 -0.144531 6.066406 -0.363281 5.984375 -0.65625 C 5.941406 -0.78125 5.914062 -0.863281 5.90625 -0.90625 C 5.53125 -0.539062 5.128906 -0.265625 4.703125 -0.078125 C 4.273438 0.0976562 3.816406 0.1875 3.328125 0.1875 C 2.472656 0.1875 1.800781 -0.0390625 1.3125 -0.5 C 0.820312 -0.96875 0.578125 -1.554688 0.578125 -2.265625 C 0.578125 -2.734375 0.6875 -3.148438 0.90625 -3.515625 C 1.132812 -3.890625 1.445312 -4.171875 1.84375 -4.359375 C 2.25 -4.554688 2.832031 -4.726562 3.59375 -4.875 C 4.625 -5.070312 5.335938 -5.253906 5.734375 -5.421875 L 5.734375 -5.640625 C 5.734375 -6.054688 5.628906 -6.351562 5.421875 -6.53125 C 5.210938 -6.71875 4.816406 -6.8125 4.234375 -6.8125 C 3.847656 -6.8125 3.546875 -6.734375 3.328125 -6.578125 C 3.109375 -6.421875 2.929688 -6.148438 2.796875 -5.765625 Z M 5.734375 -3.984375 C 5.453125 -3.890625 5.003906 -3.773438 4.390625 -3.640625 C 3.785156 -3.515625 3.390625 -3.390625 3.203125 -3.265625 C 2.910156 -3.066406 2.765625 -2.8125 2.765625 -2.5 C 2.765625 -2.1875 2.878906 -1.914062 3.109375 -1.6875 C 3.335938 -1.46875 3.628906 -1.359375 3.984375 -1.359375 C 4.378906 -1.359375 4.757812 -1.488281 5.125 -1.75 C 5.382812 -1.945312 5.554688 -2.191406 5.640625 -2.484375 C 5.703125 -2.671875 5.734375 -3.023438 5.734375 -3.546875 Z M 5.734375 -3.984375 "/>
</g>
<g id="glyph-3-19">
<path d="M 8.703125 0 L 6.5 0 L 6.5 -4.234375 C 6.5 -5.128906 6.453125 -5.707031 6.359375 -5.96875 C 6.265625 -6.238281 6.113281 -6.445312 5.90625 -6.59375 C 5.695312 -6.738281 5.441406 -6.8125 5.140625 -6.8125 C 4.765625 -6.8125 4.425781 -6.707031 4.125 -6.5 C 3.820312 -6.289062 3.613281 -6.015625 3.5 -5.671875 C 3.382812 -5.328125 3.328125 -4.691406 3.328125 -3.765625 L 3.328125 0 L 1.140625 0 L 1.140625 -8.296875 L 3.171875 -8.296875 L 3.171875 -7.078125 C 3.898438 -8.015625 4.8125 -8.484375 5.90625 -8.484375 C 6.394531 -8.484375 6.835938 -8.394531 7.234375 -8.21875 C 7.640625 -8.050781 7.941406 -7.832031 8.140625 -7.5625 C 8.347656 -7.289062 8.492188 -6.984375 8.578125 -6.640625 C 8.660156 -6.296875 8.703125 -5.800781 8.703125 -5.15625 Z M 8.703125 0 "/>
</g>
<g id="glyph-3-20">
<path d="M 1.15625 0 L 1.15625 -11.453125 L 3.34375 -11.453125 L 3.34375 0 Z M 1.15625 0 "/>
</g>
</g>
<clipPath id="clip-0">
<path clip-rule="nonzero" d="M 48.542969 318 L 569.527344 318 L 569.527344 319 L 48.542969 319 Z M 48.542969 318 "/>
</clipPath>
<clipPath id="clip-1">
<path clip-rule="nonzero" d="M 48.542969 286 L 569.527344 286 L 569.527344 288 L 48.542969 288 Z M 48.542969 286 "/>
</clipPath>
<clipPath id="clip-2">
<path clip-rule="nonzero" d="M 48.542969 255 L 569.527344 255 L 569.527344 256 L 48.542969 256 Z M 48.542969 255 "/>
</clipPath>
<clipPath id="clip-3">
<path clip-rule="nonzero" d="M 48.542969 223 L 569.527344 223 L 569.527344 225 L 48.542969 225 Z M 48.542969 223 "/>
</clipPath>
<clipPath id="clip-4">
<path clip-rule="nonzero" d="M 48.542969 192 L 569.527344 192 L 569.527344 194 L 48.542969 194 Z M 48.542969 192 "/>
</clipPath>
<clipPath id="clip-5">
<path clip-rule="nonzero" d="M 48.542969 161 L 569.527344 161 L 569.527344 162 L 48.542969 162 Z M 48.542969 161 "/>
</clipPath>
<clipPath id="clip-6">
<path clip-rule="nonzero" d="M 48.542969 129 L 569.527344 129 L 569.527344 131 L 48.542969 131 Z M 48.542969 129 "/>
</clipPath>
<clipPath id="clip-7">
<path clip-rule="nonzero" d="M 131 106.695312 L 132 106.695312 L 132 320.460938 L 131 320.460938 Z M 131 106.695312 "/>
</clipPath>
<clipPath id="clip-8">
<path clip-rule="nonzero" d="M 249 106.695312 L 251 106.695312 L 251 320.460938 L 249 320.460938 Z M 249 106.695312 "/>
</clipPath>
<clipPath id="clip-9">
<path clip-rule="nonzero" d="M 367 106.695312 L 369 106.695312 L 369 320.460938 L 367 320.460938 Z M 367 106.695312 "/>
</clipPath>
<clipPath id="clip-10">
<path clip-rule="nonzero" d="M 486 106.695312 L 487 106.695312 L 487 320.460938 L 486 320.460938 Z M 486 106.695312 "/>
</clipPath>
<clipPath id="clip-11">
<path clip-rule="nonzero" d="M 48.542969 302 L 569.527344 302 L 569.527344 304 L 48.542969 304 Z M 48.542969 302 "/>
</clipPath>
<clipPath id="clip-12">
<path clip-rule="nonzero" d="M 48.542969 270 L 569.527344 270 L 569.527344 272 L 48.542969 272 Z M 48.542969 270 "/>
</clipPath>
<clipPath id="clip-13">
<path clip-rule="nonzero" d="M 48.542969 239 L 569.527344 239 L 569.527344 241 L 48.542969 241 Z M 48.542969 239 "/>
</clipPath>
<clipPath id="clip-14">
<path clip-rule="nonzero" d="M 48.542969 207 L 569.527344 207 L 569.527344 210 L 48.542969 210 Z M 48.542969 207 "/>
</clipPath>
<clipPath id="clip-15">
<path clip-rule="nonzero" d="M 48.542969 176 L 569.527344 176 L 569.527344 178 L 48.542969 178 Z M 48.542969 176 "/>
</clipPath>
<clipPath id="clip-16">
<path clip-rule="nonzero" d="M 48.542969 145 L 569.527344 145 L 569.527344 147 L 48.542969 147 Z M 48.542969 145 "/>
</clipPath>
<clipPath id="clip-17">
<path clip-rule="nonzero" d="M 48.542969 113 L 569.527344 113 L 569.527344 115 L 48.542969 115 Z M 48.542969 113 "/>
</clipPath>
<clipPath id="clip-18">
<path clip-rule="nonzero" d="M 71 106.695312 L 73 106.695312 L 73 320.460938 L 71 320.460938 Z M 71 106.695312 "/>
</clipPath>
<clipPath id="clip-19">
<path clip-rule="nonzero" d="M 190 106.695312 L 192 106.695312 L 192 320.460938 L 190 320.460938 Z M 190 106.695312 "/>
</clipPath>
<clipPath id="clip-20">
<path clip-rule="nonzero" d="M 308 106.695312 L 310 106.695312 L 310 320.460938 L 308 320.460938 Z M 308 106.695312 "/>
</clipPath>
<clipPath id="clip-21">
<path clip-rule="nonzero" d="M 426 106.695312 L 429 106.695312 L 429 320.460938 L 426 320.460938 Z M 426 106.695312 "/>
</clipPath>
<clipPath id="clip-22">
<path clip-rule="nonzero" d="M 545 106.695312 L 547 106.695312 L 547 320.460938 L 545 320.460938 Z M 545 106.695312 "/>
</clipPath>
</defs>
<g clip-path="url(#clip-0)">
<path fill="none" stroke-width="0.630487" stroke-linecap="butt" stroke-linejoin="round" stroke="rgb(92.156863%, 92.156863%, 92.156863%)" stroke-opacity="1" stroke-miterlimit="10" d="M 48.542969 318.410156 L 569.523438 318.410156 "/>
</g>
<g clip-path="url(#clip-1)">
<path fill="none" stroke-width="0.630487" stroke-linecap="butt" stroke-linejoin="round" stroke="rgb(92.156863%, 92.156863%, 92.156863%)" stroke-opacity="1" stroke-miterlimit="10" d="M 48.542969 287.003906 L 569.523438 287.003906 "/>
</g>
<g clip-path="url(#clip-2)">
<path fill="none" stroke-width="0.630487" stroke-linecap="butt" stroke-linejoin="round" stroke="rgb(92.156863%, 92.156863%, 92.156863%)" stroke-opacity="1" stroke-miterlimit="10" d="M 48.542969 255.601562 L 569.523438 255.601562 "/>
</g>
<g clip-path="url(#clip-3)">
<path fill="none" stroke-width="0.630487" stroke-linecap="butt" stroke-linejoin="round" stroke="rgb(92.156863%, 92.156863%, 92.156863%)" stroke-opacity="1" stroke-miterlimit="10" d="M 48.542969 224.199219 L 569.523438 224.199219 "/>
</g>
<g clip-path="url(#clip-4)">
<path fill="none" stroke-width="0.630487" stroke-linecap="butt" stroke-linejoin="round" stroke="rgb(92.156863%, 92.156863%, 92.156863%)" stroke-opacity="1" stroke-miterlimit="10" d="M 48.542969 192.796875 L 569.523438 192.796875 "/>
</g>
<g clip-path="url(#clip-5)">
<path fill="none" stroke-width="0.630487" stroke-linecap="butt" stroke-linejoin="round" stroke="rgb(92.156863%, 92.156863%, 92.156863%)" stroke-opacity="1" stroke-miterlimit="10" d="M 48.542969 161.394531 L 569.523438 161.394531 "/>
</g>
<g clip-path="url(#clip-6)">
<path fill="none" stroke-width="0.630487" stroke-linecap="butt" stroke-linejoin="round" stroke="rgb(92.156863%, 92.156863%, 92.156863%)" stroke-opacity="1" stroke-miterlimit="10" d="M 48.542969 129.992188 L 569.523438 129.992188 "/>
</g>
<g clip-path="url(#clip-7)">
<path fill="none" stroke-width="0.630487" stroke-linecap="butt" stroke-linejoin="round" stroke="rgb(92.156863%, 92.156863%, 92.156863%)" stroke-opacity="1" stroke-miterlimit="10" d="M 131.425781 320.457031 L 131.425781 106.695312 "/>
</g>
<g clip-path="url(#clip-8)">
<path fill="none" stroke-width="0.630487" stroke-linecap="butt" stroke-linejoin="round" stroke="rgb(92.156863%, 92.156863%, 92.156863%)" stroke-opacity="1" stroke-miterlimit="10" d="M 249.832031 320.457031 L 249.832031 106.695312 "/>
</g>
<g clip-path="url(#clip-9)">
<path fill="none" stroke-width="0.630487" stroke-linecap="butt" stroke-linejoin="round" stroke="rgb(92.156863%, 92.156863%, 92.156863%)" stroke-opacity="1" stroke-miterlimit="10" d="M 368.234375 320.457031 L 368.234375 106.695312 "/>
</g>
<g clip-path="url(#clip-10)">
<path fill="none" stroke-width="0.630487" stroke-linecap="butt" stroke-linejoin="round" stroke="rgb(92.156863%, 92.156863%, 92.156863%)" stroke-opacity="1" stroke-miterlimit="10" d="M 486.640625 320.457031 L 486.640625 106.695312 "/>
</g>
<g clip-path="url(#clip-11)">
<path fill="none" stroke-width="1.260974" stroke-linecap="butt" stroke-linejoin="round" stroke="rgb(92.156863%, 92.156863%, 92.156863%)" stroke-opacity="1" stroke-miterlimit="10" d="M 48.542969 302.707031 L 569.523438 302.707031 "/>
</g>
<g clip-path="url(#clip-12)">
<path fill="none" stroke-width="1.260974" stroke-linecap="butt" stroke-linejoin="round" stroke="rgb(92.156863%, 92.156863%, 92.156863%)" stroke-opacity="1" stroke-miterlimit="10" d="M 48.542969 271.304688 L 569.523438 271.304688 "/>
</g>
<g clip-path="url(#clip-13)">
<path fill="none" stroke-width="1.260974" stroke-linecap="butt" stroke-linejoin="round" stroke="rgb(92.156863%, 92.156863%, 92.156863%)" stroke-opacity="1" stroke-miterlimit="10" d="M 48.542969 239.902344 L 569.523438 239.902344 "/>
</g>
<g clip-path="url(#clip-14)">
<path fill="none" stroke-width="1.260974" stroke-linecap="butt" stroke-linejoin="round" stroke="rgb(92.156863%, 92.156863%, 92.156863%)" stroke-opacity="1" stroke-miterlimit="10" d="M 48.542969 208.5 L 569.523438 208.5 "/>
</g>
<g clip-path="url(#clip-15)">
<path fill="none" stroke-width="1.260974" stroke-linecap="butt" stroke-linejoin="round" stroke="rgb(92.156863%, 92.156863%, 92.156863%)" stroke-opacity="1" stroke-miterlimit="10" d="M 48.542969 177.097656 L 569.523438 177.097656 "/>
</g>
<g clip-path="url(#clip-16)">
<path fill="none" stroke-width="1.260974" stroke-linecap="butt" stroke-linejoin="round" stroke="rgb(92.156863%, 92.156863%, 92.156863%)" stroke-opacity="1" stroke-miterlimit="10" d="M 48.542969 145.695312 L 569.523438 145.695312 "/>
</g>
<g clip-path="url(#clip-17)">
<path fill="none" stroke-width="1.260974" stroke-linecap="butt" stroke-linejoin="round" stroke="rgb(92.156863%, 92.156863%, 92.156863%)" stroke-opacity="1" stroke-miterlimit="10" d="M 48.542969 114.292969 L 569.523438 114.292969 "/>
</g>
<g clip-path="url(#clip-18)">
<path fill="none" stroke-width="1.260974" stroke-linecap="butt" stroke-linejoin="round" stroke="rgb(92.156863%, 92.156863%, 92.156863%)" stroke-opacity="1" stroke-miterlimit="10" d="M 72.222656 320.457031 L 72.222656 106.695312 "/>
</g>
<g clip-path="url(#clip-19)">
<path fill="none" stroke-width="1.260974" stroke-linecap="butt" stroke-linejoin="round" stroke="rgb(92.156863%, 92.156863%, 92.156863%)" stroke-opacity="1" stroke-miterlimit="10" d="M 190.628906 320.457031 L 190.628906 106.695312 "/>
</g>
<g clip-path="url(#clip-20)">
<path fill="none" stroke-width="1.260974" stroke-linecap="butt" stroke-linejoin="round" stroke="rgb(92.156863%, 92.156863%, 92.156863%)" stroke-opacity="1" stroke-miterlimit="10" d="M 309.03125 320.457031 L 309.03125 106.695312 "/>
</g>
<g clip-path="url(#clip-21)">
<path fill="none" stroke-width="1.260974" stroke-linecap="butt" stroke-linejoin="round" stroke="rgb(92.156863%, 92.156863%, 92.156863%)" stroke-opacity="1" stroke-miterlimit="10" d="M 427.4375 320.457031 L 427.4375 106.695312 "/>
</g>
<g clip-path="url(#clip-22)">
<path fill="none" stroke-width="1.260974" stroke-linecap="butt" stroke-linejoin="round" stroke="rgb(92.156863%, 92.156863%, 92.156863%)" stroke-opacity="1" stroke-miterlimit="10" d="M 545.84375 320.457031 L 545.84375 106.695312 "/>
</g>
<path fill-rule="nonzero" fill="rgb(8.627451%, 34.901961%, 46.27451%)" fill-opacity="1" stroke-width="0.708661" stroke-linecap="round" stroke-linejoin="round" stroke="rgb(8.627451%, 34.901961%, 46.27451%)" stroke-opacity="1" stroke-miterlimit="10" d="M 74.175781 310.742188 C 74.175781 313.347656 70.269531 313.347656 70.269531 310.742188 C 70.269531 308.136719 74.175781 308.136719 74.175781 310.742188 "/>
<path fill-rule="nonzero" fill="rgb(8.627451%, 34.901961%, 46.27451%)" fill-opacity="1" stroke-width="0.708661" stroke-linecap="round" stroke-linejoin="round" stroke="rgb(8.627451%, 34.901961%, 46.27451%)" stroke-opacity="1" stroke-miterlimit="10" d="M 192.582031 286.539062 C 192.582031 289.148438 188.671875 289.148438 188.671875 286.539062 C 188.671875 283.933594 192.582031 283.933594 192.582031 286.539062 "/>
<path fill-rule="nonzero" fill="rgb(8.627451%, 34.901961%, 46.27451%)" fill-opacity="1" stroke-width="0.708661" stroke-linecap="round" stroke-linejoin="round" stroke="rgb(8.627451%, 34.901961%, 46.27451%)" stroke-opacity="1" stroke-miterlimit="10" d="M 310.988281 276.882812 C 310.988281 279.488281 307.078125 279.488281 307.078125 276.882812 C 307.078125 274.277344 310.988281 274.277344 310.988281 276.882812 "/>
<path fill-rule="nonzero" fill="rgb(8.627451%, 34.901961%, 46.27451%)" fill-opacity="1" stroke-width="0.708661" stroke-linecap="round" stroke-linejoin="round" stroke="rgb(8.627451%, 34.901961%, 46.27451%)" stroke-opacity="1" stroke-miterlimit="10" d="M 429.394531 238.117188 C 429.394531 240.726562 425.484375 240.726562 425.484375 238.117188 C 425.484375 235.511719 429.394531 235.511719 429.394531 238.117188 "/>
<path fill-rule="nonzero" fill="rgb(8.627451%, 34.901961%, 46.27451%)" fill-opacity="1" stroke-width="0.708661" stroke-linecap="round" stroke-linejoin="round" stroke="rgb(8.627451%, 34.901961%, 46.27451%)" stroke-opacity="1" stroke-miterlimit="10" d="M 547.796875 226.75 C 547.796875 229.355469 543.886719 229.355469 543.886719 226.75 C 543.886719 224.140625 547.796875 224.140625 547.796875 226.75 "/>
<path fill-rule="nonzero" fill="rgb(81.568627%, 30.588235%, 40%)" fill-opacity="1" stroke-width="0.708661" stroke-linecap="round" stroke-linejoin="round" stroke="rgb(81.568627%, 30.588235%, 40%)" stroke-opacity="1" stroke-miterlimit="10" d="M 74.175781 297.296875 C 74.175781 299.902344 70.269531 299.902344 70.269531 297.296875 C 70.269531 294.691406 74.175781 294.691406 74.175781 297.296875 "/>
<path fill-rule="nonzero" fill="rgb(81.568627%, 30.588235%, 40%)" fill-opacity="1" stroke-width="0.708661" stroke-linecap="round" stroke-linejoin="round" stroke="rgb(81.568627%, 30.588235%, 40%)" stroke-opacity="1" stroke-miterlimit="10" d="M 192.582031 258.371094 C 192.582031 260.976562 188.671875 260.976562 188.671875 258.371094 C 188.671875 255.765625 192.582031 255.765625 192.582031 258.371094 "/>
<path fill-rule="nonzero" fill="rgb(81.568627%, 30.588235%, 40%)" fill-opacity="1" stroke-width="0.708661" stroke-linecap="round" stroke-linejoin="round" stroke="rgb(81.568627%, 30.588235%, 40%)" stroke-opacity="1" stroke-miterlimit="10" d="M 310.988281 233.707031 C 310.988281 236.3125 307.078125 236.3125 307.078125 233.707031 C 307.078125 231.101562 310.988281 231.101562 310.988281 233.707031 "/>
<path fill-rule="nonzero" fill="rgb(81.568627%, 30.588235%, 40%)" fill-opacity="1" stroke-width="0.708661" stroke-linecap="round" stroke-linejoin="round" stroke="rgb(81.568627%, 30.588235%, 40%)" stroke-opacity="1" stroke-miterlimit="10" d="M 429.394531 162.761719 C 429.394531 165.371094 425.484375 165.371094 425.484375 162.761719 C 425.484375 160.15625 429.394531 160.15625 429.394531 162.761719 "/>
<path fill-rule="nonzero" fill="rgb(81.568627%, 30.588235%, 40%)" fill-opacity="1" stroke-width="0.708661" stroke-linecap="round" stroke-linejoin="round" stroke="rgb(81.568627%, 30.588235%, 40%)" stroke-opacity="1" stroke-miterlimit="10" d="M 547.796875 116.410156 C 547.796875 119.015625 543.886719 119.015625 543.886719 116.410156 C 543.886719 113.804688 547.796875 113.804688 547.796875 116.410156 "/>
<path fill="none" stroke-width="1.066978" stroke-linecap="butt" stroke-linejoin="round" stroke="rgb(8.627451%, 34.901961%, 46.27451%)" stroke-opacity="1" stroke-miterlimit="10" d="M 72.222656 310.742188 L 190.628906 286.539062 L 309.03125 276.882812 L 427.4375 238.117188 L 545.84375 226.75 "/>
<path fill="none" stroke-width="1.066978" stroke-linecap="butt" stroke-linejoin="round" stroke="rgb(81.568627%, 30.588235%, 40%)" stroke-opacity="1" stroke-miterlimit="10" d="M 72.222656 297.296875 L 190.628906 258.371094 L 309.03125 233.707031 L 427.4375 162.761719 L 545.84375 116.410156 "/>
<g fill="rgb(30.196078%, 30.196078%, 30.196078%)" fill-opacity="1">
<use xlink:href="#glyph-0-0" x="22.714844" y="306.121094"/>
<use xlink:href="#glyph-0-1" x="28.714844" y="306.121094"/>
<use xlink:href="#glyph-0-2" x="37.714844" y="306.121094"/>
</g>
<g fill="rgb(30.196078%, 30.196078%, 30.196078%)" fill-opacity="1">
<use xlink:href="#glyph-0-3" x="22.714844" y="274.71875"/>
<use xlink:href="#glyph-0-1" x="28.714844" y="274.71875"/>
<use xlink:href="#glyph-0-2" x="37.714844" y="274.71875"/>
</g>
<g fill="rgb(30.196078%, 30.196078%, 30.196078%)" fill-opacity="1">
<use xlink:href="#glyph-0-4" x="22.714844" y="243.316406"/>
<use xlink:href="#glyph-0-1" x="28.714844" y="243.316406"/>
<use xlink:href="#glyph-0-2" x="37.714844" y="243.316406"/>
</g>
<g fill="rgb(30.196078%, 30.196078%, 30.196078%)" fill-opacity="1">
<use xlink:href="#glyph-0-5" x="22.714844" y="211.914062"/>
<use xlink:href="#glyph-0-1" x="28.714844" y="211.914062"/>
<use xlink:href="#glyph-0-2" x="37.714844" y="211.914062"/>
</g>
<g fill="rgb(30.196078%, 30.196078%, 30.196078%)" fill-opacity="1">
<use xlink:href="#glyph-0-6" x="22.714844" y="180.511719"/>
<use xlink:href="#glyph-0-1" x="28.714844" y="180.511719"/>
<use xlink:href="#glyph-0-2" x="37.714844" y="180.511719"/>
</g>
<g fill="rgb(30.196078%, 30.196078%, 30.196078%)" fill-opacity="1">
<use xlink:href="#glyph-0-7" x="22.714844" y="149.109375"/>
<use xlink:href="#glyph-0-1" x="28.714844" y="149.109375"/>
<use xlink:href="#glyph-0-2" x="37.714844" y="149.109375"/>
</g>
<g fill="rgb(30.196078%, 30.196078%, 30.196078%)" fill-opacity="1">
<use xlink:href="#glyph-0-8" x="22.714844" y="117.707031"/>
<use xlink:href="#glyph-0-1" x="28.714844" y="117.707031"/>
<use xlink:href="#glyph-0-2" x="37.714844" y="117.707031"/>
</g>
<g fill="rgb(30.196078%, 30.196078%, 30.196078%)" fill-opacity="1">
<use xlink:href="#glyph-0-0" x="55.722656" y="333.699219"/>
<use xlink:href="#glyph-0-9" x="61.722656" y="333.699219"/>
<use xlink:href="#glyph-0-10" x="67.722656" y="333.699219"/>
<use xlink:href="#glyph-0-9" x="70.722656" y="333.699219"/>
<use xlink:href="#glyph-0-9" x="76.722656" y="333.699219"/>
<use xlink:href="#glyph-0-9" x="82.722656" y="333.699219"/>
</g>
<g fill="rgb(30.196078%, 30.196078%, 30.196078%)" fill-opacity="1">
<use xlink:href="#glyph-0-3" x="174.128906" y="333.699219"/>
<use xlink:href="#glyph-0-9" x="180.128906" y="333.699219"/>
<use xlink:href="#glyph-0-10" x="186.128906" y="333.699219"/>
<use xlink:href="#glyph-0-9" x="189.128906" y="333.699219"/>
<use xlink:href="#glyph-0-9" x="195.128906" y="333.699219"/>
<use xlink:href="#glyph-0-9" x="201.128906" y="333.699219"/>
</g>
<g fill="rgb(30.196078%, 30.196078%, 30.196078%)" fill-opacity="1">
<use xlink:href="#glyph-0-4" x="292.53125" y="333.699219"/>
<use xlink:href="#glyph-0-9" x="298.53125" y="333.699219"/>
<use xlink:href="#glyph-0-10" x="304.53125" y="333.699219"/>
<use xlink:href="#glyph-0-9" x="307.53125" y="333.699219"/>
<use xlink:href="#glyph-0-9" x="313.53125" y="333.699219"/>
<use xlink:href="#glyph-0-9" x="319.53125" y="333.699219"/>
</g>
<g fill="rgb(30.196078%, 30.196078%, 30.196078%)" fill-opacity="1">
<use xlink:href="#glyph-0-5" x="410.9375" y="333.699219"/>
<use xlink:href="#glyph-0-9" x="416.9375" y="333.699219"/>
<use xlink:href="#glyph-0-10" x="422.9375" y="333.699219"/>
<use xlink:href="#glyph-0-9" x="425.9375" y="333.699219"/>
<use xlink:href="#glyph-0-9" x="431.9375" y="333.699219"/>
<use xlink:href="#glyph-0-9" x="437.9375" y="333.699219"/>
</g>
<g fill="rgb(30.196078%, 30.196078%, 30.196078%)" fill-opacity="1">
<use xlink:href="#glyph-0-6" x="529.34375" y="333.699219"/>
<use xlink:href="#glyph-0-9" x="535.34375" y="333.699219"/>
<use xlink:href="#glyph-0-10" x="541.34375" y="333.699219"/>
<use xlink:href="#glyph-0-9" x="544.34375" y="333.699219"/>
<use xlink:href="#glyph-0-9" x="550.34375" y="333.699219"/>
<use xlink:href="#glyph-0-9" x="556.34375" y="333.699219"/>
</g>
<g fill="rgb(0%, 0%, 0%)" fill-opacity="1">
<use xlink:href="#glyph-1-0" x="227.03125" y="350.291992"/>
<use xlink:href="#glyph-1-1" x="236.03125" y="350.291992"/>
<use xlink:href="#glyph-1-2" x="243.03125" y="350.291992"/>
<use xlink:href="#glyph-1-3" x="254.03125" y="350.291992"/>
<use xlink:href="#glyph-1-4" x="261.03125" y="350.291992"/>
<use xlink:href="#glyph-1-5" x="268.03125" y="350.291992"/>
<use xlink:href="#glyph-1-6" x="272.03125" y="350.291992"/>
<use xlink:href="#glyph-1-7" x="276.03125" y="350.291992"/>
<use xlink:href="#glyph-1-8" x="283.03125" y="350.291992"/>
<use xlink:href="#glyph-1-6" x="287.03125" y="350.291992"/>
<use xlink:href="#glyph-1-9" x="291.03125" y="350.291992"/>
<use xlink:href="#glyph-1-5" x="298.03125" y="350.291992"/>
<use xlink:href="#glyph-1-7" x="302.03125" y="350.291992"/>
<use xlink:href="#glyph-1-10" x="309.03125" y="350.291992"/>
<use xlink:href="#glyph-1-4" x="313.03125" y="350.291992"/>
<use xlink:href="#glyph-1-11" x="320.03125" y="350.291992"/>
<use xlink:href="#glyph-1-10" x="327.03125" y="350.291992"/>
<use xlink:href="#glyph-1-4" x="331.03125" y="350.291992"/>
<use xlink:href="#glyph-1-12" x="338.03125" y="350.291992"/>
<use xlink:href="#glyph-1-6" x="345.03125" y="350.291992"/>
<use xlink:href="#glyph-1-7" x="349.03125" y="350.291992"/>
<use xlink:href="#glyph-1-3" x="356.03125" y="350.291992"/>
<use xlink:href="#glyph-1-13" x="363.03125" y="350.291992"/>
<use xlink:href="#glyph-1-4" x="366.03125" y="350.291992"/>
<use xlink:href="#glyph-1-11" x="373.03125" y="350.291992"/>
<use xlink:href="#glyph-1-10" x="380.03125" y="350.291992"/>
<use xlink:href="#glyph-1-14" x="384.03125" y="350.291992"/>
</g>
<g fill="rgb(0%, 0%, 0%)" fill-opacity="1">
<use xlink:href="#glyph-2-0" x="16.245117" y="251.578125"/>
<use xlink:href="#glyph-2-1" x="16.245117" y="242.578125"/>
<use xlink:href="#glyph-2-2" x="16.245117" y="235.578125"/>
<use xlink:href="#glyph-2-1" x="16.245117" y="232.578125"/>
<use xlink:href="#glyph-2-3" x="16.245117" y="225.578125"/>
<use xlink:href="#glyph-2-4" x="16.245117" y="218.578125"/>
<use xlink:href="#glyph-2-1" x="16.245117" y="211.578125"/>
<use xlink:href="#glyph-2-5" x="16.245117" y="204.578125"/>
<use xlink:href="#glyph-2-6" x="16.245117" y="200.578125"/>
<use xlink:href="#glyph-2-7" x="16.245117" y="196.578125"/>
<use xlink:href="#glyph-2-8" x="16.245117" y="193.578125"/>
<use xlink:href="#glyph-2-1" x="16.245117" y="182.578125"/>
</g>
<g fill="rgb(0%, 0%, 0%)" fill-opacity="1">
<use xlink:href="#glyph-1-15" x="227.800781" y="83.397461"/>
<use xlink:href="#glyph-1-16" x="236.800781" y="83.397461"/>
<use xlink:href="#glyph-1-11" x="243.800781" y="83.397461"/>
<use xlink:href="#glyph-1-17" x="250.800781" y="83.397461"/>
<use xlink:href="#glyph-1-16" x="257.800781" y="83.397461"/>
<use xlink:href="#glyph-1-18" x="264.800781" y="83.397461"/>
<use xlink:href="#glyph-1-4" x="271.800781" y="83.397461"/>
</g>
<path fill-rule="nonzero" fill="rgb(8.627451%, 34.901961%, 46.27451%)" fill-opacity="1" stroke-width="0.708661" stroke-linecap="round" stroke-linejoin="round" stroke="rgb(8.627451%, 34.901961%, 46.27451%)" stroke-opacity="1" stroke-miterlimit="10" d="M 295.871094 78.628906 C 295.871094 81.234375 291.960938 81.234375 291.960938 78.628906 C 291.960938 76.019531 295.871094 76.019531 295.871094 78.628906 "/>
<path fill="none" stroke-width="1.066978" stroke-linecap="butt" stroke-linejoin="round" stroke="rgb(8.627451%, 34.901961%, 46.27451%)" stroke-opacity="1" stroke-miterlimit="10" d="M 287.003906 78.628906 L 300.828125 78.628906 "/>
<path fill-rule="nonzero" fill="rgb(81.568627%, 30.588235%, 40%)" fill-opacity="1" stroke-width="0.708661" stroke-linecap="round" stroke-linejoin="round" stroke="rgb(81.568627%, 30.588235%, 40%)" stroke-opacity="1" stroke-miterlimit="10" d="M 352.101562 78.628906 C 352.101562 81.234375 348.195312 81.234375 348.195312 78.628906 C 348.195312 76.019531 352.101562 76.019531 352.101562 78.628906 "/>
<path fill="none" stroke-width="1.066978" stroke-linecap="butt" stroke-linejoin="round" stroke="rgb(81.568627%, 30.588235%, 40%)" stroke-opacity="1" stroke-miterlimit="10" d="M 343.238281 78.628906 L 357.0625 78.628906 "/>
<g fill="rgb(0%, 0%, 0%)" fill-opacity="1">
<use xlink:href="#glyph-0-11" x="309.03125" y="82.042969"/>
<use xlink:href="#glyph-0-12" x="314.03125" y="82.042969"/>
<use xlink:href="#glyph-0-12" x="320.03125" y="82.042969"/>
<use xlink:href="#glyph-0-5" x="326.03125" y="82.042969"/>
<use xlink:href="#glyph-0-13" x="332.03125" y="82.042969"/>
</g>
<g fill="rgb(0%, 0%, 0%)" fill-opacity="1">
<use xlink:href="#glyph-0-14" x="365.265625" y="82.042969"/>
<use xlink:href="#glyph-0-11" x="373.265625" y="82.042969"/>
<use xlink:href="#glyph-0-12" x="378.265625" y="82.042969"/>
<use xlink:href="#glyph-0-12" x="384.265625" y="82.042969"/>
</g>
<g fill="rgb(0%, 0%, 0%)" fill-opacity="1">
<use xlink:href="#glyph-3-0" x="200.53125" y="17.960938"/>
<use xlink:href="#glyph-3-1" x="212.53125" y="17.960938"/>
<use xlink:href="#glyph-3-2" x="222.53125" y="17.960938"/>
<use xlink:href="#glyph-3-3" x="236.53125" y="17.960938"/>
<use xlink:href="#glyph-3-4" x="246.53125" y="17.960938"/>
<use xlink:href="#glyph-3-5" x="255.53125" y="17.960938"/>
<use xlink:href="#glyph-3-6" x="261.53125" y="17.960938"/>
<use xlink:href="#glyph-3-7" x="265.53125" y="17.960938"/>
<use xlink:href="#glyph-3-8" x="275.53125" y="17.960938"/>
<use xlink:href="#glyph-3-6" x="280.53125" y="17.960938"/>
<use xlink:href="#glyph-3-9" x="284.53125" y="17.960938"/>
<use xlink:href="#glyph-3-5" x="294.53125" y="17.960938"/>
<use xlink:href="#glyph-3-7" x="300.53125" y="17.960938"/>
<use xlink:href="#glyph-3-10" x="310.53125" y="17.960938"/>
<use xlink:href="#glyph-3-4" x="315.53125" y="17.960938"/>
<use xlink:href="#glyph-3-11" x="324.53125" y="17.960938"/>
<use xlink:href="#glyph-3-10" x="333.53125" y="17.960938"/>
<use xlink:href="#glyph-3-4" x="338.53125" y="17.960938"/>
<use xlink:href="#glyph-3-12" x="347.53125" y="17.960938"/>
<use xlink:href="#glyph-3-6" x="357.53125" y="17.960938"/>
<use xlink:href="#glyph-3-7" x="361.53125" y="17.960938"/>
<use xlink:href="#glyph-3-3" x="371.53125" y="17.960938"/>
<use xlink:href="#glyph-3-13" x="381.53125" y="17.960938"/>
<use xlink:href="#glyph-3-4" x="385.53125" y="17.960938"/>
<use xlink:href="#glyph-3-11" x="394.53125" y="17.960938"/>
<use xlink:href="#glyph-3-10" x="403.53125" y="17.960938"/>
<use xlink:href="#glyph-3-14" x="408.53125" y="17.960938"/>
</g>
<g fill="rgb(0%, 0%, 0%)" fill-opacity="1">
<use xlink:href="#glyph-3-15" x="300.03125" y="35.238281"/>
<use xlink:href="#glyph-3-14" x="309.03125" y="35.238281"/>
</g>
<g fill="rgb(0%, 0%, 0%)" fill-opacity="1">
<use xlink:href="#glyph-3-16" x="129.53125" y="52.519531"/>
<use xlink:href="#glyph-3-4" x="142.53125" y="52.519531"/>
<use xlink:href="#glyph-3-12" x="151.53125" y="52.519531"/>
<use xlink:href="#glyph-3-17" x="161.53125" y="52.519531"/>
<use xlink:href="#glyph-3-18" x="165.53125" y="52.519531"/>
<use xlink:href="#glyph-3-19" x="174.53125" y="52.519531"/>
<use xlink:href="#glyph-3-6" x="184.53125" y="52.519531"/>
<use xlink:href="#glyph-3-10" x="188.53125" y="52.519531"/>
<use xlink:href="#glyph-3-17" x="193.53125" y="52.519531"/>
<use xlink:href="#glyph-3-2" x="197.53125" y="52.519531"/>
<use xlink:href="#glyph-3-4" x="211.53125" y="52.519531"/>
<use xlink:href="#glyph-3-6" x="220.53125" y="52.519531"/>
<use xlink:href="#glyph-3-10" x="224.53125" y="52.519531"/>
<use xlink:href="#glyph-3-7" x="229.53125" y="52.519531"/>
<use xlink:href="#glyph-3-6" x="239.53125" y="52.519531"/>
<use xlink:href="#glyph-3-5" x="243.53125" y="52.519531"/>
<use xlink:href="#glyph-3-4" x="249.53125" y="52.519531"/>
<use xlink:href="#glyph-3-20" x="258.53125" y="52.519531"/>
<use xlink:href="#glyph-3-4" x="262.53125" y="52.519531"/>
<use xlink:href="#glyph-3-18" x="271.53125" y="52.519531"/>
<use xlink:href="#glyph-3-14" x="280.53125" y="52.519531"/>
<use xlink:href="#glyph-3-4" x="289.53125" y="52.519531"/>
<use xlink:href="#glyph-3-6" x="298.53125" y="52.519531"/>
<use xlink:href="#glyph-3-9" x="302.53125" y="52.519531"/>
<use xlink:href="#glyph-3-5" x="312.53125" y="52.519531"/>
<use xlink:href="#glyph-3-7" x="318.53125" y="52.519531"/>
<use xlink:href="#glyph-3-10" x="328.53125" y="52.519531"/>
<use xlink:href="#glyph-3-4" x="333.53125" y="52.519531"/>
<use xlink:href="#glyph-3-11" x="342.53125" y="52.519531"/>
<use xlink:href="#glyph-3-10" x="351.53125" y="52.519531"/>
<use xlink:href="#glyph-3-17" x="356.53125" y="52.519531"/>
<use xlink:href="#glyph-3-7" x="360.53125" y="52.519531"/>
<use xlink:href="#glyph-3-19" x="370.53125" y="52.519531"/>
<use xlink:href="#glyph-3-6" x="380.53125" y="52.519531"/>
<use xlink:href="#glyph-3-7" x="384.53125" y="52.519531"/>
<use xlink:href="#glyph-3-19" x="394.53125" y="52.519531"/>
<use xlink:href="#glyph-3-6" x="404.53125" y="52.519531"/>
<use xlink:href="#glyph-3-7" x="408.53125" y="52.519531"/>
<use xlink:href="#glyph-3-19" x="418.53125" y="52.519531"/>
<use xlink:href="#glyph-3-4" x="428.53125" y="52.519531"/>
<use xlink:href="#glyph-3-6" x="437.53125" y="52.519531"/>
<use xlink:href="#glyph-3-7" x="441.53125" y="52.519531"/>
<use xlink:href="#glyph-3-3" x="451.53125" y="52.519531"/>
<use xlink:href="#glyph-3-13" x="461.53125" y="52.519531"/>
<use xlink:href="#glyph-3-4" x="465.53125" y="52.519531"/>
<use xlink:href="#glyph-3-11" x="474.53125" y="52.519531"/>
<use xlink:href="#glyph-3-10" x="483.53125" y="52.519531"/>
</g>
</svg>
